Molle.glyphspackage
{
glyphname = exclam;
kernLeft = KO_exclam;
kernRight = KO_exclam;
layers = (
{
layerId = m001;
shapes = (
{
closed = 1;
nodes = (
(578,1038,o),
(1215,1046,o),
(1215,1257,cs),
(1215,1371,o),
(1127,1460,o),
(1062,1460,cs),
(904,1460,o),
(737,1297,o),
(641,1181,cs),
(477,983,o),
(375,683,o),
(333,408,c),
(333,386,o),
(448,411,o),
(474,411,c)
);
},
{
closed = 1;
nodes = (
(180,-41,o),
(256,-87,o),
(336,-87,cs),
(442,-87,o),
(648,3,o),
(648,109,cs),
(648,197,o),
(583,257,o),
(477,257,cs),
(316,257,o),
(180,146,o),
(180,39,cs)
);
}
);
width = 1014;
}
);
unicode = 33;
userData = {
KernOnSpecialSpacing = {
L = "spaced-off";
};
};
}
{
glyphname = quotedbl;
kernLeft = KO_quotedbl;
kernRight = KO_quotedbl;
layers = (
{
layerId = m001;
shapes = (
{
closed = 1;
nodes = (
(413,1001,o),
(450,982,o),
(463,982,cs),
(517,982,o),
(736,1215,o),
(736,1353,cs),
(736,1423,o),
(693,1472,o),
(627,1472,cs),
(448,1472,o),
(449,1143,o),
(400,1014,c)
);
},
{
closed = 1;
nodes = (
(813,1001,o),
(850,982,o),
(863,982,cs),
(917,982,o),
(1136,1215,o),
(1136,1353,cs),
(1136,1423,o),
(1093,1472,o),
(1027,1472,cs),
(848,1472,o),
(849,1143,o),
(800,1014,c)
);
}
);
width = 1063;
}
);
unicode = 34;
userData = {
KernOnName = quotedbl;
KernOnSpecialSpacing = {
L = quotes;
R = quotes;
};
};
}
{
glyphname = numbersign;
kernLeft = KO_numbersign;
kernRight = KO_numbersign;
layers = (
{
layerId = m001;
shapes = (
{
closed = 1;
nodes = (
(837,10,o),
(892,-4,o),
(965,-4,cs),
(999,-4,o),
(1076,167,o),
(1159,390,c),
(1312,402,o),
(1439,419,o),
(1490,438,cs),
(1507,444,o),
(1507,537,o),
(1506,562,c),
(1449,554,o),
(1342,549,o),
(1215,546,c),
(1248,640,o),
(1280,737,o),
(1309,831,c),
(1445,843,o),
(1555,858,o),
(1603,876,cs),
(1620,882,o),
(1620,959,o),
(1619,984,c),
(1564,976,o),
(1468,971,o),
(1352,969,c),
(1407,1157,o),
(1446,1314,o),
(1446,1371,cs),
(1446,1389,o),
(1380,1410,o),
(1356,1417,c),
(1340,1344,o),
(1275,1169,o),
(1194,966,c),
(1082,966,o),
(963,967,o),
(852,970,c),
(916,1157,o),
(961,1314,o),
(961,1371,cs),
(961,1389,o),
(895,1410,o),
(871,1417,c),
(855,1346,o),
(785,1174,o),
(696,975,c),
(575,980,o),
(476,987,o),
(424,997,c),
(415,959,o),
(407,896,o),
(421,858,cs),
(429,835,o),
(508,820,o),
(623,814,c),
(583,727,o),
(542,640,o),
(501,555,c),
(401,560,o),
(320,567,o),
(276,575,c),
(267,537,o),
(259,458,o),
(273,420,cs),
(279,401,o),
(333,388,o),
(416,381,c),
(333,215,o),
(262,82,o),
(230,34,c),
(273,18,o),
(348,-4,o),
(415,-4,cs),
(448,-4,o),
(531,158,o),
(622,371,c),
(723,370,o),
(834,372,o),
(944,377,c),
(873,216,o),
(811,86,o),
(780,34,c)
);
},
{
closed = 1;
nodes = (
(902,809,o),
(1020,812,o),
(1134,818,c),
(1018,544,l),
(911,544,o),
(799,546,o),
(695,548,c),
(730,634,o),
(763,723,o),
(795,809,c)
);
}
);
width = 1707;
}
);
unicode = 35;
}
{
glyphname = dollar;
kernLeft = KO_dollar;
layers = (
{
layerId = m001;
shapes = (
{
closed = 1;
nodes = (
(224,-201,o),
(281,-255,o),
(324,-255,cs),
(356,-255,o),
(424,-153,o),
(509,3,c),
(529,1,o),
(550,0,o),
(572,0,cs),
(882,0,o),
(1192,207,o),
(1192,502,cs),
(1192,678,o),
(1044,790,o),
(918,881,c),
(975,1017,o),
(1026,1145,o),
(1067,1255,c),
(1155,1240,o),
(1238,1188,o),
(1270,1130,c),
(1310,1143,o),
(1380,1186,o),
(1380,1234,cs),
(1380,1315,o),
(1242,1370,o),
(1110,1376,c),
(1142,1469,o),
(1161,1538,o),
(1161,1568,cs),
(1161,1585,o),
(1103,1606,o),
(1079,1613,c),
(1070,1573,o),
(1037,1485,o),
(989,1370,c),
(776,1340,o),
(576,1216,o),
(576,1036,cs),
(576,929,o),
(650,853,o),
(725,784,c),
(649,624,o),
(569,462,o),
(494,317,c),
(349,341,o),
(209,428,o),
(160,553,c),
(136,547,o),
(95,526,o),
(95,507,cs),
(95,288,o),
(191,125,o),
(348,48,c),
(285,-60,o),
(233,-139,o),
(200,-168,c)
);
},
{
closed = 1;
nodes = (
(887,417,o),
(796,340,o),
(666,317,c),
(721,432,o),
(777,557,o),
(831,681,c),
(864,642,o),
(887,601,o),
(887,554,cs)
);
},
{
closed = 1;
nodes = (
(739,1175,o),
(843,1230,o),
(938,1250,c),
(900,1162,o),
(856,1065,o),
(809,963,c),
(767,999,o),
(739,1034,o),
(739,1071,cs)
);
}
);
width = 1368;
}
);
unicode = 36;
userData = {
KernOnSpecialSpacing = {
L = symbols;
R = symbols;
};
};
}
{
glyphname = percent;
kernLeft = KO_percent;
layers = (
{
layerId = m001;
shapes = (
{
closed = 1;
nodes = (
(1256,615,o),
(1245,599,o),
(1238,579,c),
(1051,527,o),
(905,332,o),
(905,178,cs),
(905,32,o),
(998,-52,o),
(1154,-52,cs),
(1392,-52,o),
(1576,131,o),
(1576,345,cs),
(1576,528,o),
(1457,642,o),
(1270,617,cs)
);
},
{
closed = 1;
nodes = (
(115,17,o),
(200,-68,o),
(229,-68,cs),
(384,-68,o),
(1449,1173,o),
(1449,1320,cs),
(1449,1333,o),
(1390,1383,o),
(1373,1388,c),
(1096,981,o),
(303,190,o),
(105,49,c)
);
},
{
closed = 1;
nodes = (
(592,1346,o),
(582,1337,o),
(576,1325,c),
(417,1289,o),
(284,1135,o),
(284,981,cs),
(284,869,o),
(364,782,o),
(488,782,cs),
(682,782,o),
(859,926,o),
(859,1144,cs),
(859,1265,o),
(741,1372,o),
(603,1348,cs)
);
},
{
closed = 1;
nodes = (
(1162,185,o),
(1138,213,o),
(1138,267,cs),
(1138,382,o),
(1238,460,o),
(1337,472,c),
(1435,388,o),
(1317,185,o),
(1207,185,cs)
);
},
{
closed = 1;
nodes = (
(498,972,o),
(476,998,o),
(476,1047,cs),
(476,1139,o),
(542,1219,o),
(650,1252,c),
(777,1189,o),
(646,972,o),
(539,972,cs)
);
}
);
width = 1733;
}
);
unicode = 37;
userData = {
KernOnSpecialSpacing = {
L = "spaced-off";
};
};
}
{
glyphname = ampersand;
kernLeft = KO_ampersand;
kernRight = KO_ampersand;
layers = (
{
layerId = m001;
shapes = (
{
closed = 1;
nodes = (
(1566,389,o),
(1441,343,o),
(1353,343,cs),
(1309,343,o),
(1271,360,o),
(1239,390,c),
(1369,530,o),
(1455,674,o),
(1455,763,cs),
(1455,797,o),
(1421,803,o),
(1394,807,c),
(1359,715,o),
(1268,617,o),
(1151,537,c),
(1115,637,o),
(1099,762,o),
(1104,882,c),
(1319,965,o),
(1507,1062,o),
(1507,1222,cs),
(1507,1309,o),
(1435,1377,o),
(1320,1377,cs),
(1109,1377,o),
(956,1166,o),
(866,917,c),
(509,798,o),
(98,657,o),
(98,384,cs),
(98,137,o),
(290,-1,o),
(535,-1,cs),
(648,-1,o),
(768,40,o),
(883,104,c),
(945,39,o),
(1033,-1,o),
(1141,-1,cs),
(1446,-1,o),
(1594,236,o),
(1647,362,cs),
(1660,395,o),
(1640,423,o),
(1615,433,c)
);
},
{
closed = 1;
nodes = (
(546,357,o),
(483,410,o),
(483,503,cs),
(483,624,o),
(636,704,o),
(823,777,c),
(790,647,o),
(773,515,o),
(773,405,cs),
(773,393,o),
(773,382,o),
(774,371,c),
(729,362,o),
(685,357,o),
(643,357,cs)
);
},
{
closed = 1;
nodes = (
(1340,1277,o),
(1382,1257,o),
(1382,1202,cs),
(1382,1124,o),
(1271,1064,o),
(1116,1004,c),
(1141,1158,o),
(1204,1277,o),
(1303,1277,cs)
);
}
);
width = 1717;
}
);
unicode = 38;
userData = {
KernOnSpecialSpacing = {
L = symbols;
R = symbols;
};
};
}
{
glyphname = quotesingle;
kernLeft = KO_quotesingle;
kernRight = KO_quotesingle;
layers = (
{
layerId = m001;
shapes = (
{
closed = 1;
nodes = (
(413,1001,o),
(450,982,o),
(463,982,cs),
(517,982,o),
(736,1215,o),
(736,1353,cs),
(736,1423,o),
(693,1472,o),
(627,1472,cs),
(448,1472,o),
(449,1143,o),
(400,1014,c)
);
}
);
width = 663;
}
);
unicode = 39;
userData = {
KernOnSpecialSpacing = {
L = quotes;
R = quotes;
};
};
}
{
glyphname = parenleft;
kernLeft = KO_parenleft;
kernRight = KO_parenleft;
layers = (
{
layerId = m001;
shapes = (
{
closed = 1;
nodes = (
(1529,1524,o),
(1509,1583,o),
(1461,1583,cs),
(988,1583,o),
(200,613,o),
(200,-17,cs),
(200,-158,o),
(267,-233,o),
(324,-233,cs),
(387,-233,o),
(475,-196,o),
(511,-163,c),
(359,378,o),
(1012,1482,o),
(1532,1482,c)
);
}
);
width = 1052;
}
);
unicode = 40;
userData = {
KernOnSpecialSpacing = {
R = parenthesis;
};
};
}
{
glyphname = parenright;
kernLeft = KO_parenright;
kernRight = KO_parenright;
layers = (
{
layerId = m001;
shapes = (
{
closed = 1;
nodes = (
(18,-158,o),
(89,-293,o),
(181,-293,cs),
(722,-293,o),
(1219,1029,o),
(980,1555,cs),
(964,1590,o),
(901,1580,o),
(864,1561,c),
(1056,1080,o),
(552,0,o),
(15,-116,c)
);
}
);
width = 1167;
}
);
unicode = 41;
userData = {
KernOnSpecialSpacing = {
L = parenthesis;
};
};
}
{
glyphname = asterisk;
kernLeft = KO_asterisk;
kernRight = KO_asterisk;
layers = (
{
layerId = m001;
shapes = (
{
closed = 1;
nodes = (
(316,1044,o),
(335,984,o),
(382,984,cs),
(400,984,o),
(497,1021,o),
(616,1073,c),
(588,977,o),
(559,892,o),
(540,845,c),
(559,831,o),
(615,825,o),
(647,863,cs),
(674,894,o),
(715,984,o),
(754,1086,c),
(817,1043,o),
(873,1010,o),
(899,997,cs),
(932,979,o),
(990,1012,o),
(1011,1051,c),
(974,1081,o),
(916,1131,o),
(853,1188,c),
(964,1246,o),
(1062,1305,o),
(1108,1352,cs),
(1176,1422,o),
(1145,1465,o),
(1095,1512,c),
(1058,1479,o),
(958,1418,o),
(841,1351,c),
(856,1409,o),
(866,1459,o),
(866,1491,cs),
(866,1560,o),
(836,1587,o),
(733,1583,c),
(733,1545,o),
(715,1451,o),
(688,1341,c),
(606,1419,o),
(539,1488,o),
(529,1512,c),
(485,1487,o),
(440,1444,o),
(440,1405,cs),
(440,1354,o),
(506,1281,o),
(589,1211,c),
(464,1143,o),
(355,1086,o),
(317,1067,c)
);
}
);
width = 1003;
}
);
unicode = 42;
userData = {
KernOnSpecialSpacing = {
L = quotes;
R = quotes;
};
};
}
{
glyphname = plus;
kernLeft = KO_plus;
kernRight = KO_plus;
layers = (
{
layerId = m001;
shapes = (
{
closed = 1;
nodes = (
(533,94,o),
(626,98,o),
(652,140,cs),
(677,181,o),
(742,323,o),
(803,478,c),
(940,490,o),
(1064,508,o),
(1129,533,cs),
(1171,549,o),
(1190,604,o),
(1177,657,c),
(1099,645,o),
(984,637,o),
(861,633,c),
(901,747,o),
(930,850,o),
(930,908,cs),
(930,994,o),
(866,1018,o),
(756,1014,c),
(762,954,o),
(724,800,o),
(675,631,c),
(513,632,o),
(365,641,o),
(304,659,c),
(269,535,o),
(300,463,o),
(474,463,cs),
(521,463,o),
(573,464,o),
(626,466,c),
(583,326,o),
(539,192,o),
(514,108,c)
);
}
);
width = 1436;
}
);
unicode = 43;
userData = {
KernOnSpecialSpacing = {
L = math;
R = math;
};
};
}
{
glyphname = comma;
kernLeft = KO_comma;
kernRight = KO_period;
layers = (
{
layerId = m001;
shapes = (
{
closed = 1;
nodes = (
(-12,-293,o),
(30,-361,o),
(68,-361,cs),
(275,-361,o),
(648,-106,o),
(648,109,cs),
(648,197,o),
(583,257,o),
(477,257,cs),
(350,257,o),
(240,174,o),
(240,68,cs),
(240,52,o),
(247,10,o),
(268,-15,c),
(236,-81,o),
(69,-201,o),
(-24,-256,c)
);
}
);
width = 828;
}
);
unicode = 44;
userData = {
KernOnSpecialSpacing = {
L = period;
R = period;
};
};
}
{
glyphname = hyphen;
kernLeft = KO_hyphen;
kernRight = KO_hyphen;
layers = (
{
layerId = m001;
shapes = (
{
closed = 1;
nodes = (
(844,621,o),
(575,628,o),
(401,658,c),
(352,578,o),
(352,421,o),
(542,421,cs),
(730,421,o),
(1064,509,o),
(1064,626,cs),
(1064,643,o),
(1055,654,o),
(1032,650,cs)
);
}
);
width = 1093;
}
);
unicode = 45;
userData = {
KernOnName = hyphen;
KernOnSpecialSpacing = {
L = hyphen;
R = hyphen;
};
};
}
{
glyphname = period;
kernLeft = KO_period;
kernRight = KO_period;
layers = (
{
layerId = m001;
shapes = (
{
closed = 1;
nodes = (
(180,-41,o),
(256,-87,o),
(336,-87,cs),
(447,-87,o),
(648,3,o),
(648,109,cs),
(648,197,o),
(583,257,o),
(477,257,cs),
(316,257,o),
(180,146,o),
(180,39,cs)
);
}
);
width = 828;
}
);
unicode = 46;
userData = {
KernOnSpecialSpacing = {
L = period;
R = period;
};
};
}
{
glyphname = slash;
kernLeft = KO_slash;
kernRight = KO_slash;
layers = (
{
layerId = m001;
shapes = (
{
closed = 1;
nodes = (
(38,-154,o),
(142,-208,o),
(183,-208,cs),
(304,-208,o),
(1343,1453,o),
(1343,1570,cs),
(1343,1588,o),
(1290,1606,o),
(1266,1613,c),
(1165,1428,o),
(256,91,o),
(14,-121,c)
);
}
);
width = 1151;
}
);
unicode = 47;
userData = {
KernOnSpecialSpacing = {
L = slash;
R = slash;
};
};
}
{
glyphname = zero;
kernLeft = KO_zero;
kernRight = KO_zero;
layers = (
{
layerId = m001;
shapes = (
{
closed = 1;
nodes = (
(1149,1267,o),
(1219,1161,o),
(1219,1008,cs),
(1219,694,o),
(896,317,o),
(617,317,cs),
(482,317,o),
(406,390,o),
(406,523,cs),
(406,869,o),
(709,1267,o),
(1014,1267,cs)
);
},
{
closed = 1;
nodes = (
(573,1378,o),
(78,786,o),
(78,387,cs),
(78,139,o),
(210,-6,o),
(478,-6,cs),
(1009,-6,o),
(1377,551,o),
(1377,978,cs),
(1377,1230,o),
(1251,1378,o),
(1036,1378,cs)
);
}
);
width = 1353;
}
);
unicode = 48;
}
{
glyphname = one;
kernLeft = KO_one;
kernRight = KO_one;
layers = (
{
layerId = m001;
shapes = (
{
closed = 1;
nodes = (
(521,579,o),
(1055,1107,o),
(1055,1280,cs),
(1055,1323,o),
(993,1376,o),
(950,1384,c),
(712,1249,o),
(307,1091,o),
(206,1060,c),
(217,1020,o),
(250,950,o),
(299,950,cs),
(388,950,o),
(746,1122,o),
(922,1246,c),
(741,948,o),
(110,474,o),
(110,205,cs),
(110,0,o),
(299,-48,o),
(509,-29,c)
);
}
);
width = 914;
}
);
unicode = 49;
}
{
glyphname = two;
kernLeft = KO_two;
kernRight = KO_two;
layers = (
{
layerId = m001;
shapes = (
{
closed = 1;
nodes = (
(1223,135,o),
(1236,255,o),
(1105,299,cs),
(889,372,o),
(549,334,o),
(549,334,c),
(549,334,o),
(1368,696,o),
(1368,1110,cs),
(1368,1250,o),
(1268,1377,o),
(1040,1377,cs),
(733,1377,o),
(287,1171,o),
(287,981,cs),
(287,901,o),
(424,860,o),
(480,860,cs),
(500,860,o),
(536,892,o),
(554,919,c),
(510,942,o),
(487,978,o),
(487,1013,cs),
(487,1104,o),
(750,1260,o),
(992,1260,cs),
(1075,1260,o),
(1177,1232,o),
(1177,1135,cs),
(1177,780,o),
(129,437,o),
(2,289,cs),
(-70,205,o),
(-30,-78,o),
(134,-27,cs),
(461,75,o),
(932,106,o),
(1145,35,c)
);
}
);
width = 1333;
}
);
unicode = 50;
}
{
glyphname = three;
kernLeft = KO_three;
kernRight = KO_three;
layers = (
{
layerId = m001;
shapes = (
{
closed = 1;
nodes = (
(417,710,o),
(446,541,o),
(513,541,cs),
(601,541,o),
(706,568,o),
(810,614,c),
(912,341,o),
(425,157,o),
(-10,180,c),
(-40,42,o),
(22,-111,o),
(228,-111,cs),
(1064,-111,o),
(1337,462,o),
(1015,729,c),
(1175,841,o),
(1297,987,o),
(1297,1124,cs),
(1297,1285,o),
(1188,1377,o),
(960,1377,cs),
(643,1377,o),
(230,1149,o),
(230,1000,cs),
(230,940,o),
(285,884,o),
(329,884,cs),
(349,884,o),
(374,907,o),
(385,922,c),
(351,1049,o),
(651,1260,o),
(912,1260,cs),
(995,1260,o),
(1097,1232,o),
(1097,1135,cs),
(1097,899,o),
(595,773,o),
(417,750,c)
);
}
);
width = 1268;
}
);
unicode = 51;
}
{
glyphname = four;
kernLeft = KO_four;
kernRight = KO_four;
layers = (
{
layerId = m001;
shapes = (
{
closed = 1;
nodes = (
(918,162,o),
(987,352,o),
(1069,525,c),
(1098,526,o),
(1127,526,o),
(1155,526,cs),
(1280,526,o),
(1420,518,o),
(1462,504,c),
(1494,545,o),
(1510,582,o),
(1510,605,cs),
(1510,679,o),
(1357,713,o),
(1171,720,c),
(1317,982,o),
(1465,1186,o),
(1465,1280,cs),
(1465,1323,o),
(1403,1376,o),
(1360,1384,c),
(1006,1237,o),
(400,902,o),
(95,673,c),
(114,570,o),
(204,376,o),
(368,427,cs),
(464,457,o),
(580,480,o),
(700,496,c),
(599,363,o),
(528,237,o),
(528,137,cs),
(528,-23,o),
(689,-49,o),
(895,-33,c)
);
},
{
closed = 1;
nodes = (
(591,825,o),
(1081,1133,o),
(1327,1228,c),
(1250,1103,o),
(1061,914,o),
(886,718,c),
(657,711,o),
(451,693,o),
(403,689,c)
);
}
);
width = 1515;
}
);
unicode = 52;
}
{
glyphname = five;
kernLeft = KO_five;
kernRight = KO_five;
layers = (
{
layerId = m001;
shapes = (
{
closed = 1;
nodes = (
(1227,1368,o),
(623,1394,o),
(583,1356,cs),
(534,1310,o),
(397,986,o),
(397,938,c),
(463,881,o),
(720,747,o),
(720,594,cs),
(720,451,o),
(578,373,o),
(386,373,cs),
(295,373,o),
(168,419,o),
(102,452,c),
(46,376,o),
(-34,215,o),
(25,139,cs),
(91,54,o),
(233,0,o),
(437,0,cs),
(789,0,o),
(1018,216,o),
(1018,497,cs),
(1018,702,o),
(894,887,o),
(628,1008,c),
(628,1015,o),
(684,1244,o),
(685,1251,c),
(787,1245,o),
(1159,1227,o),
(1218,1227,cs),
(1277,1227,o),
(1304,1336,o),
(1295,1385,c)
);
}
);
width = 1137;
}
);
unicode = 53;
}
{
glyphname = six;
kernLeft = KO_six;
kernRight = KO_six;
layers = (
{
layerId = m001;
shapes = (
{
closed = 1;
nodes = (
(1295,1194,o),
(1339,1243,o),
(1316,1284,cs),
(1290,1330,o),
(1192,1378,o),
(1084,1378,cs),
(618,1378,o),
(126,795,o),
(126,387,cs),
(126,139,o),
(258,-12,o),
(526,-12,cs),
(856,-12,o),
(1106,241,o),
(1106,494,cs),
(1106,783,o),
(871,905,o),
(494,749,c),
(589,1003,o),
(817,1267,o),
(1062,1267,cs),
(1175,1267,o),
(1231,1197,o),
(1259,1158,c)
);
},
{
closed = 1;
nodes = (
(892,421,o),
(797,317,o),
(665,317,cs),
(523,317,o),
(448,417,o),
(448,523,cs),
(448,547,o),
(450,573,o),
(454,600,c),
(690,704,o),
(892,673,o),
(892,529,cs)
);
}
);
width = 1243;
}
);
unicode = 54;
}
{
glyphname = seven;
kernLeft = KO_seven;
kernRight = KO_seven;
layers = (
{
layerId = m001;
shapes = (
{
closed = 1;
nodes = (
(297,1324,o),
(460,1369,o),
(651,1369,cs),
(755,1369,o),
(1193,1357,o),
(1325,1307,cs),
(1353,1296,o),
(1348,1168,o),
(1348,1168,c),
(715,934,o),
(457,265,o),
(500,11,c),
(228,-27,o),
(83,12,o),
(83,176,cs),
(83,558,o),
(683,1050,o),
(1196,1221,c),
(1196,1221,o),
(434,1300,o),
(386,1129,c),
(353,1142,o),
(297,1178,o),
(297,1251,cs)
);
}
);
width = 1053;
}
);
unicode = 55;
}
{
glyphname = eight;
kernLeft = KO_eight;
kernRight = KO_eight;
layers = (
{
layerId = m001;
shapes = (
{
closed = 1;
nodes = (
(472,984,o),
(555,899,o),
(648,819,c),
(360,712,o),
(68,578,o),
(68,339,cs),
(68,128,o),
(253,0,o),
(487,0,cs),
(893,0,o),
(1178,224,o),
(1178,516,cs),
(1178,627,o),
(1099,721,o),
(1006,803,c),
(1202,883,o),
(1374,973,o),
(1374,1112,cs),
(1374,1274,o),
(1191,1377,o),
(982,1377,cs),
(700,1377,o),
(472,1269,o),
(472,1086,cs)
);
},
{
closed = 1;
nodes = (
(706,1209,o),
(858,1267,o),
(973,1267,cs),
(1081,1267,o),
(1203,1224,o),
(1203,1122,cs),
(1203,1035,o),
(1064,971,o),
(883,904,c),
(788,979,o),
(706,1046,o),
(706,1112,cs)
);
},
{
closed = 1;
nodes = (
(894,430,o),
(798,317,o),
(626,317,cs),
(511,317,o),
(448,374,o),
(448,449,cs),
(448,561,o),
(595,639,o),
(773,711,c),
(841,649,o),
(894,587,o),
(894,519,cs)
);
}
);
width = 1341;
}
);
unicode = 56;
}
{
glyphname = nine;
kernLeft = KO_nine;
kernRight = KO_nine;
layers = (
{
layerId = m001;
shapes = (
{
closed = 1;
nodes = (
(-83,105,o),
(-21,-48,o),
(185,-48,cs),
(823,-48,o),
(1169,534,o),
(1169,954,cs),
(1169,1211,o),
(1051,1377,o),
(803,1377,cs),
(497,1377,o),
(265,1064,o),
(265,827,cs),
(265,682,o),
(352,565,o),
(560,565,cs),
(641,565,o),
(729,587,o),
(811,627,c),
(635,419,o),
(338,240,o),
(-53,243,c)
);
},
{
closed = 1;
nodes = (
(512,804,o),
(462,863,o),
(462,939,cs),
(462,1071,o),
(613,1251,o),
(783,1251,cs),
(926,1251,o),
(993,1160,o),
(993,1038,cs),
(993,1001,o),
(987,960,o),
(975,918,c),
(898,859,o),
(754,804,o),
(637,804,cs)
);
}
);
width = 1205;
}
);
unicode = 57;
}
{
glyphname = colon;
kernLeft = KO_colon;
kernRight = KO_colon;
layers = (
{
layerId = m001;
shapes = (
{
closed = 1;
nodes = (
(180,-41,o),
(256,-87,o),
(336,-87,cs),
(447,-87,o),
(648,3,o),
(648,109,cs),
(648,197,o),
(583,257,o),
(477,257,cs),
(316,257,o),
(180,146,o),
(180,39,cs)
);
},
{
closed = 1;
nodes = (
(431,505,o),
(510,451,o),
(590,451,cs),
(685,451,o),
(813,561,o),
(813,644,cs),
(813,718,o),
(702,782,o),
(654,782,cs),
(582,782,o),
(431,675,o),
(431,585,cs)
);
}
);
width = 828;
}
);
unicode = 58;
userData = {
KernOnSpecialSpacing = {
L = "spaced-off";
R = "spaced-off";
};
};
}
{
glyphname = semicolon;
kernLeft = KO_semicolon;
kernRight = KO_colon;
layers = (
{
layerId = m001;
shapes = (
{
closed = 1;
nodes = (
(-12,-293,o),
(30,-361,o),
(68,-361,cs),
(275,-361,o),
(648,-106,o),
(648,109,cs),
(648,197,o),
(583,257,o),
(477,257,cs),
(350,257,o),
(240,174,o),
(240,68,cs),
(240,52,o),
(247,10,o),
(268,-15,c),
(236,-81,o),
(69,-201,o),
(-24,-256,c)
);
},
{
closed = 1;
nodes = (
(431,505,o),
(510,451,o),
(590,451,cs),
(685,451,o),
(813,561,o),
(813,644,cs),
(813,718,o),
(702,782,o),
(654,782,cs),
(582,782,o),
(431,675,o),
(431,585,cs)
);
}
);
width = 828;
}
);
unicode = 59;
userData = {
KernOnSpecialSpacing = {
L = "spaced-off";
R = "spaced-off";
};
};
}
{
glyphname = less;
kernRight = KO_less;
layers = (
{
layerId = m001;
shapes = (
{
closed = 1;
nodes = (
(857,186,o),
(422,486,o),
(418,562,cs),
(415,621,o),
(981,1001,o),
(1049,1031,c),
(1039,1053,o),
(997,1110,o),
(969,1110,cs),
(876,1110,o),
(124,665,o),
(124,531,cs),
(124,384,o),
(559,22,o),
(707,22,cs),
(746,22,o),
(851,146,o),
(857,186,c)
);
}
);
width = 1085;
}
);
unicode = 60;
userData = {
KernOnSpecialSpacing = {
L = math;
R = math;
};
};
}
{
glyphname = equal;
kernLeft = KO_equal;
kernRight = KO_equal;
layers = (
{
layerId = m001;
shapes = (
{
closed = 1;
nodes = (
(1001,793,o),
(479,792,o),
(349,829,c),
(314,705,o),
(343,623,o),
(517,623,cs),
(741,623,o),
(1054,642,o),
(1172,693,cs),
(1213,711,o),
(1235,774,o),
(1222,827,c)
);
},
{
closed = 1;
nodes = (
(934,425,o),
(412,424,o),
(282,461,c),
(247,337,o),
(276,255,o),
(450,255,cs),
(674,255,o),
(934,265,o),
(1105,325,cs),
(1147,340,o),
(1168,406,o),
(1155,459,c)
);
}
);
width = 1436;
}
);
unicode = 61;
userData = {
KernOnSpecialSpacing = {
L = math;
R = math;
};
};
}
{
glyphname = greater;
kernLeft = KO_greater;
kernRight = KO_greater;
layers = (
{
layerId = m001;
shapes = (
{
closed = 1;
nodes = (
(354,1058,o),
(719,710,o),
(719,635,cs),
(719,576,o),
(105,230,o),
(37,200,c),
(59,142,o),
(142,22,o),
(212,22,cs),
(312,22,o),
(986,442,o),
(986,576,cs),
(986,719,o),
(516,1110,o),
(436,1110,cs),
(407,1110,o),
(368,1077,o),
(354,1058,c)
);
}
);
width = 1085;
}
);
unicode = 62;
userData = {
KernOnSpecialSpacing = {
L = math;
R = math;
};
};
}
{
glyphname = question;
kernLeft = KO_question;
kernRight = KO_question;
layers = (
{
layerId = m001;
shapes = (
{
closed = 1;
nodes = (
(180,-41,o),
(256,-87,o),
(336,-87,cs),
(442,-87,o),
(648,3,o),
(648,109,cs),
(648,197,o),
(583,257,o),
(477,257,cs),
(316,257,o),
(180,146,o),
(180,39,cs)
);
},
{
closed = 1;
nodes = (
(801,479,o),
(718,541,o),
(718,617,cs),
(718,762,o),
(1380,1076,o),
(1380,1367,cs),
(1380,1525,o),
(1251,1600,o),
(1092,1600,cs),
(776,1600,o),
(336,1353,o),
(336,1128,cs),
(336,1032,o),
(389,993,o),
(487,993,cs),
(579,993,o),
(681,1068,o),
(681,1096,cs),
(681,1108,o),
(677,1124,o),
(669,1138,c),
(589,1096,o),
(513,1080,o),
(513,1186,cs),
(513,1354,o),
(861,1504,o),
(1086,1504,cs),
(1175,1504,o),
(1234,1457,o),
(1234,1378,cs),
(1234,1064,o),
(330,950,o),
(330,563,cs),
(330,454,o),
(443,377,o),
(580,377,cs),
(696,377,o),
(842,424,o),
(917,513,cs),
(931,530,o),
(918,557,o),
(899,561,c)
);
}
);
width = 1130;
}
);
unicode = 63;
userData = {
KernOnSpecialSpacing = {
L = "spaced-off";
};
};
}
{
glyphname = at;
kernLeft = KO_at;
kernRight = KO_at;
layers = (
{
layerId = m001;
shapes = (
{
closed = 1;
nodes = (
(1318,501,o),
(1187,339,o),
(1069,339,cs),
(954,339,o),
(1110,709,o),
(1128,757,c),
(1128,757,o),
(1046,781,o),
(1018,742,cs),
(1012,735,o),
(1007,727,o),
(1001,719,c),
(990,738,o),
(968,752,o),
(931,752,cs),
(628,752,o),
(346,525,o),
(346,306,cs),
(346,192,o),
(422,114,o),
(541,114,cs),
(653,114,o),
(732,175,o),
(779,228,c),
(776,147,o),
(851,114,o),
(930,114,cs),
(1218,114,o),
(1447,382,o),
(1447,672,cs),
(1447,904,o),
(1278,1009,o),
(1036,1009,cs),
(556,1009,o),
(22,606,o),
(22,236,cs),
(22,-43,o),
(238,-192,o),
(509,-192,cs),
(610,-192,o),
(725,-160,o),
(800,-93,cs),
(817,-78,o),
(805,-51,o),
(789,-29,c),
(488,-99,o),
(196,5,o),
(196,288,cs),
(196,627,o),
(682,931,o),
(1018,931,cs),
(1196,931,o),
(1318,851,o),
(1318,681,cs)
);
},
{
closed = 1;
nodes = (
(599,339,o),
(584,358,o),
(584,411,cs),
(584,523,o),
(720,650,o),
(957,654,c),
(871,526,o),
(749,339,o),
(644,339,cs)
);
}
);
width = 1500;
}
);
unicode = 64;
userData = {
KernOnSpecialSpacing = {
L = symbols;
R = symbols;
};
};
}
{
glyphname = A;
kernLeft = KO_A;
kernRight = KO_A;
layers = (
{
layerId = m001;
shapes = (
{
closed = 1;
nodes = (
(228,814,o),
(447,925,o),
(721,925,cs),
(771,925,o),
(818,923,o),
(862,920,c),
(603,676,o),
(416,400,o),
(416,164,cs),
(416,23,o),
(497,-39,o),
(554,-39,cs),
(620,-39,o),
(762,38,o),
(822,84,c),
(777,327,o),
(913,620,o),
(1121,871,c),
(1204,845,o),
(1289,810,o),
(1388,762,c),
(1430,804,o),
(1430,858,o),
(1363,899,cs),
(1337,915,o),
(1282,942,o),
(1208,969,c),
(1465,1242,o),
(1798,1446,o),
(2045,1446,cs),
(2074,1446,o),
(2087,1438,o),
(2087,1423,cs),
(2087,1276,o),
(1392,833,o),
(1392,366,cs),
(1392,84,o),
(1569,-33,o),
(1763,-33,cs),
(1955,-33,o),
(2114,138,o),
(2114,239,cs),
(2114,258,o),
(2080,296,o),
(2071,302,c),
(2049,293,o),
(2027,287,o),
(2005,287,cs),
(1929,287,o),
(1900,332,o),
(1900,406,cs),
(1900,782,o),
(2231,1271,o),
(2231,1451,cs),
(2231,1515,o),
(2186,1560,o),
(2096,1560,cs),
(1803,1560,o),
(1352,1333,o),
(991,1033,c),
(905,1052,o),
(812,1065,o),
(717,1065,cs),
(362,1065,o),
(32,947,o),
(32,739,cs),
(32,570,o),
(285,516,o),
(325,587,c)
);
}
);
width = 2139;
}
);
unicode = 65;
userData = {
KernOnName = A;
};
}
{
glyphname = B;
kernLeft = KO_B;
kernRight = KO_B;
layers = (
{
layerId = m001;
shapes = (
{
closed = 1;
nodes = (
(129,600,o),
(74,574,o),
(79,550,cs),
(233,-201,o),
(1696,-210,o),
(1696,470,cs),
(1696,609,o),
(1615,727,o),
(1448,805,c),
(1632,858,o),
(1779,977,o),
(1779,1140,cs),
(1779,1442,o),
(1408,1581,o),
(1042,1581,cs),
(711,1581,o),
(265,1443,o),
(265,1142,cs),
(265,1020,o),
(355,917,o),
(436,917,cs),
(478,917,o),
(545,975,o),
(581,1014,c),
(531,1061,o),
(497,1124,o),
(497,1204,cs),
(497,1394,o),
(770,1475,o),
(1053,1475,cs),
(1275,1475,o),
(1579,1397,o),
(1579,1183,cs),
(1579,1043,o),
(1364,957,o),
(1195,957,cs),
(1155,957,o),
(1085,965,o),
(1028,979,c),
(1108,1120,o),
(1185,1244,o),
(1252,1313,c),
(1226,1337,o),
(1163,1353,o),
(1135,1327,cs),
(918,1126,o),
(645,675,o),
(447,412,c),
(322,461,o),
(216,528,o),
(159,607,c)
);
},
{
closed = 1;
nodes = (
(1125,792,o),
(1290,706,o),
(1290,560,cs),
(1290,333,o),
(980,286,o),
(678,345,c),
(753,464,o),
(841,633,o),
(930,799,c)
);
}
);
width = 1767;
}
);
unicode = 66;
}
{
glyphname = C;
kernLeft = KO_C;
kernRight = KO_C;
layers = (
{
layerId = m001;
shapes = (
{
closed = 1;
nodes = (
(1483,1182,o),
(1575,1259,o),
(1575,1370,cs),
(1575,1513,o),
(1432,1572,o),
(1285,1572,cs),
(761,1572,o),
(105,1054,o),
(105,530,cs),
(105,-285,o),
(1304,-189,o),
(1575,460,cs),
(1599,518,o),
(1575,539,o),
(1540,536,c),
(1253,93,o),
(485,182,o),
(485,682,cs),
(485,1048,o),
(881,1462,o),
(1247,1462,cs),
(1344,1462,o),
(1378,1374,o),
(1286,1264,c),
(1303,1245,o),
(1396,1182,o),
(1431,1182,cs)
);
}
);
width = 1361;
}
);
unicode = 67;
userData = {
KernOnName = C;
};
}
{
glyphname = D;
kernLeft = KO_D;
kernRight = KO_D;
layers = (
{
layerId = m001;
shapes = (
{
closed = 1;
nodes = (
(911,1120,o),
(618,641,o),
(414,381,c),
(296,425,o),
(199,493,o),
(133,585,c),
(88,574,o),
(48,556,o),
(57,503,cs),
(120,147,o),
(477,-28,o),
(821,-28,cs),
(1480,-28,o),
(1920,520,o),
(1920,981,cs),
(1920,1404,o),
(1621,1588,o),
(1091,1588,cs),
(768,1588,o),
(288,1479,o),
(288,1173,cs),
(288,1051,o),
(360,927,o),
(441,927,cs),
(483,927,o),
(550,985,o),
(586,1024,c),
(536,1071,o),
(502,1134,o),
(502,1214,cs),
(502,1390,o),
(837,1482,o),
(1068,1482,cs),
(1455,1482,o),
(1672,1375,o),
(1672,1119,cs),
(1672,758,o),
(1216,322,o),
(771,322,cs),
(737,322,o),
(705,323,o),
(673,326,c),
(843,592,o),
(1079,1136,o),
(1252,1313,c),
(1226,1337,o),
(1163,1353,o),
(1135,1327,cs)
);
}
);
width = 1833;
}
);
unicode = 68;
userData = {
KernOnName = D;
};
}
{
glyphname = E;
kernLeft = KO_E;
kernRight = KO_E;
layers = (
{
layerId = m001;
shapes = (
{
closed = 1;
nodes = (
(1174,1016,o),
(917,1107,o),
(917,1263,cs),
(917,1389,o),
(1237,1449,o),
(1365,1449,cs),
(1431,1449,o),
(1477,1423,o),
(1477,1366,cs),
(1477,1312,o),
(1455,1268,o),
(1433,1242,c),
(1450,1223,o),
(1499,1185,o),
(1534,1185,cs),
(1611,1185,o),
(1671,1289,o),
(1671,1378,cs),
(1671,1498,o),
(1560,1559,o),
(1418,1559,cs),
(1128,1559,o),
(725,1438,o),
(725,1241,cs),
(725,1139,o),
(795,1056,o),
(890,994,c),
(518,981,o),
(140,754,o),
(140,374,cs),
(140,135,o),
(342,-27,o),
(689,-27,cs),
(975,-27,o),
(1273,209,o),
(1273,372,cs),
(1273,394,o),
(1224,435,o),
(1224,435,c),
(1155,385,o),
(1024,299,o),
(846,299,cs),
(653,299,o),
(528,390,o),
(528,515,cs),
(528,786,o),
(912,939,o),
(1297,805,cs),
(1323,796,o),
(1364,977,o),
(1364,977,c)
);
}
);
width = 1328;
}
);
unicode = 69;
userData = {
KernOnName = E;
};
}
{
glyphname = F;
kernLeft = KO_F;
kernRight = KO_F;
layers = (
{
layerId = m001;
shapes = (
{
closed = 1;
nodes = (
(1632,883,o),
(1644,962,o),
(1605,975,cs),
(1542,996,o),
(1470,1012,o),
(1397,1023,c),
(1426,1119,o),
(1442,1204,o),
(1442,1270,cs),
(1442,1500,o),
(1148,1570,o),
(871,1570,cs),
(568,1570,o),
(56,1489,o),
(56,1250,cs),
(56,1194,o),
(119,1064,o),
(184,1064,cs),
(256,1064,o),
(309,1099,o),
(335,1127,c),
(320,1156,o),
(296,1208,o),
(296,1252,cs),
(296,1390,o),
(663,1457,o),
(871,1457,cs),
(1068,1457,o),
(1277,1402,o),
(1277,1274,cs),
(1277,1222,o),
(1250,1137,o),
(1205,1040,c),
(1194,1041,o),
(1182,1041,o),
(1171,1041,cs),
(756,1041,o),
(604,907,o),
(765,789,c),
(802,845,o),
(951,886,o),
(1135,902,c),
(988,641,o),
(754,358,o),
(567,358,cs),
(495,358,o),
(471,425,o),
(471,523,cs),
(471,560,o),
(483,611,o),
(497,651,c),
(463,672,o),
(423,684,o),
(395,659,cs),
(336,605,o),
(215,422,o),
(215,227,cs),
(215,84,o),
(287,-59,o),
(447,-59,cs),
(826,-59,o),
(1196,484,o),
(1357,909,c),
(1450,907,o),
(1545,898,o),
(1632,883,c)
);
}
);
width = 1404;
}
);
unicode = 70;
userData = {
KernOnName = F;
};
}
{
glyphname = G;
kernLeft = KO_G;
kernRight = KO_G;
layers = (
{
layerId = m001;
shapes = (
{
closed = 1;
nodes = (
(673,309,o),
(541,442,o),
(541,685,cs),
(541,1097,o),
(984,1473,o),
(1359,1473,cs),
(1504,1473,o),
(1632,1383,o),
(1697,1296,c),
(1733,1324,o),
(1773,1359,o),
(1773,1405,cs),
(1773,1561,o),
(1547,1584,o),
(1391,1584,cs),
(816,1584,o),
(128,1006,o),
(128,492,cs),
(128,139,o),
(361,-35,o),
(718,-35,cs),
(1189,-35,o),
(1668,386,o),
(1668,786,cs),
(1668,825,o),
(1665,863,o),
(1658,897,c),
(1702,930,o),
(1740,965,o),
(1772,1001,cs),
(1802,1034,o),
(1734,1089,o),
(1734,1089,c),
(1698,1057,o),
(1660,1026,o),
(1620,998,c),
(1579,1064,o),
(1508,1105,o),
(1392,1105,cs),
(1197,1105,o),
(822,1007,o),
(822,863,cs),
(822,745,o),
(959,692,o),
(1105,692,cs),
(1239,692,o),
(1387,739,o),
(1516,807,c),
(1501,510,o),
(1152,309,o),
(906,309,cs)
);
},
{
closed = 1;
nodes = (
(1113,837,o),
(1043,852,o),
(1043,895,cs),
(1043,951,o),
(1265,996,o),
(1380,996,cs),
(1446,996,o),
(1484,973,o),
(1503,925,c),
(1401,872,o),
(1291,837,o),
(1181,837,cs)
);
}
);
width = 1694;
}
);
unicode = 71;
userData = {
KernOnName = G;
};
}
{
glyphname = H;
kernLeft = KO_H;
kernRight = KO_H;
layers = (
{
layerId = m001;
shapes = (
{
closed = 1;
nodes = (
(2006,407,o),
(1878,317,o),
(1783,317,cs),
(1691,317,o),
(1677,408,o),
(1677,500,cs),
(1677,551,o),
(1693,628,o),
(1719,719,c),
(1753,715,o),
(1788,713,o),
(1824,713,cs),
(1912,713,o),
(1918,863,o),
(1918,863,c),
(1866,859,o),
(1815,860,o),
(1765,862,c),
(1857,1126,o),
(2000,1435,o),
(2093,1551,c),
(2067,1573,o),
(2005,1611,o),
(1976,1575,cs),
(1869,1443,o),
(1698,1171,o),
(1562,887,c),
(1419,913,o),
(1284,954,o),
(1158,988,c),
(1231,1215,o),
(1275,1419,o),
(1282,1528,cs),
(1285,1567,o),
(1217,1581,o),
(1183,1581,c),
(1169,1429,o),
(1103,1224,o),
(1013,1025,c),
(936,1042,o),
(863,1053,o),
(793,1053,cs),
(338,1053,o),
(51,610,o),
(51,271,cs),
(51,63,o),
(136,-86,o),
(332,-86,cs),
(679,-86,o),
(958,421,o),
(1122,881,c),
(1245,844,o),
(1372,796,o),
(1504,760,c),
(1328,351,o),
(1255,-43,o),
(1584,-43,cs),
(1768,-43,o),
(2049,272,o),
(2126,460,cs),
(2150,518,o),
(2126,539,o),
(2091,536,c)
);
},
{
closed = 1;
nodes = (
(360,331,o),
(319,402,o),
(319,530,cs),
(319,717,o),
(472,937,o),
(813,937,cs),
(862,937,o),
(913,931,o),
(964,921,c),
(807,607,o),
(598,331,o),
(452,331,cs)
);
}
);
width = 1908;
}
);
unicode = 72;
userData = {
KernOnName = H;
};
}
{
glyphname = I;
kernLeft = KO_I;
kernRight = KO_I;
layers = (
{
layerId = m001;
shapes = (
{
closed = 1;
nodes = (
(309,693,o),
(265,687,o),
(237,662,cs),
(153,585,o),
(61,440,o),
(61,307,cs),
(61,108,o),
(170,-50,o),
(392,-50,cs),
(837,-50,o),
(1288,828,o),
(1288,1260,cs),
(1288,1470,o),
(1187,1557,o),
(977,1557,cs),
(735,1557,o),
(325,1434,o),
(325,1240,cs),
(325,1184,o),
(388,1054,o),
(453,1054,cs),
(498,1054,o),
(582,1093,o),
(608,1121,c),
(593,1150,o),
(569,1200,o),
(569,1244,cs),
(569,1382,o),
(794,1435,o),
(932,1435,cs),
(1060,1435,o),
(1143,1404,o),
(1143,1276,cs),
(1143,992,o),
(767,367,o),
(512,367,cs),
(380,367,o),
(324,453,o),
(324,562,cs),
(324,599,o),
(336,641,o),
(350,681,c)
);
}
);
width = 1189;
}
);
unicode = 73;
userData = {
KernOnName = I;
};
}
{
glyphname = J;
kernLeft = KO_J;
kernRight = KO_J;
layers = (
{
layerId = m001;
shapes = (
{
closed = 1;
nodes = (
(2,-324,o),
(116,-439,o),
(277,-439,cs),
(754,-439,o),
(1288,597,o),
(1288,1245,cs),
(1288,1465,o),
(1220,1557,o),
(977,1557,cs),
(701,1557,o),
(303,1407,o),
(303,1213,cs),
(303,1157,o),
(410,1055,o),
(475,1055,cs),
(500,1055,o),
(546,1076,o),
(567,1099,c),
(552,1128,o),
(528,1180,o),
(528,1224,cs),
(528,1362,o),
(814,1439,o),
(952,1439,cs),
(1080,1439,o),
(1136,1389,o),
(1136,1261,cs),
(1136,1020,o),
(993,709,o),
(827,460,c),
(402,431,o),
(2,135,o),
(2,-186,cs)
);
},
{
closed = 1;
nodes = (
(293,31,o),
(337,260,o),
(736,332,c),
(600,154,o),
(463,31,o),
(387,31,cs)
);
}
);
width = 1208;
}
);
unicode = 74;
}
{
glyphname = K;
kernLeft = KO_K;
kernRight = KO_K;
layers = (
{
layerId = m001;
shapes = (
{
closed = 1;
nodes = (
(1647,1369,o),
(1208,1087,o),
(753,965,c),
(838,1185,o),
(928,1392,o),
(1026,1526,c),
(989,1558,o),
(933,1571,o),
(905,1546,cs),
(735,1389,o),
(201,209,o),
(10,38,c),
(50,6,o),
(216,-32,o),
(298,-32,cs),
(401,-32,o),
(522,330,o),
(663,722,c),
(688,729,o),
(717,739,o),
(750,752,c),
(851,568,o),
(704,-31,o),
(1215,-31,cs),
(1490,-31,o),
(1750,208,o),
(1855,460,cs),
(1879,518,o),
(1855,539,o),
(1820,536,c),
(1746,423,o),
(1593,315,o),
(1492,315,cs),
(1210,315,o),
(1202,785,o),
(1080,907,c),
(1429,1092,o),
(1832,1358,o),
(1832,1479,cs),
(1832,1542,o),
(1741,1560,o),
(1693,1567,c)
);
}
);
width = 1637;
}
);
unicode = 75;
}
{
glyphname = L;
kernLeft = KO_L;
kernRight = KO_L;
layers = (
{
layerId = m001;
shapes = (
{
closed = 1;
nodes = (
(1398,762,o),
(1651,1028,o),
(1651,1293,cs),
(1651,1446,o),
(1564,1577,o),
(1356,1577,cs),
(809,1577,o),
(670,610,o),
(275,338,c),
(246,342,o),
(216,344,o),
(185,344,cs),
(77,344,o),
(-35,260,o),
(-35,163,cs),
(-35,87,o),
(36,13,o),
(105,14,cs),
(169,14,o),
(210,27,o),
(258,39,c),
(538,16,o),
(705,-227,o),
(1060,-227,cs),
(1264,-227,o),
(1452,-16,o),
(1452,188,cs),
(1452,225,o),
(1421,239,o),
(1382,241,c),
(1344,161,o),
(1247,123,o),
(1152,123,cs),
(1001,123,o),
(673,215,o),
(551,255,c),
(884,296,o),
(904,1472,o),
(1369,1472,cs),
(1466,1472,o),
(1512,1393,o),
(1512,1315,cs),
(1512,1138,o),
(1286,943,o),
(1076,973,c),
(1046,900,o),
(1093,762,o),
(1202,762,cs)
);
}
);
width = 1514;
}
);
unicode = 76;
userData = {
KernOnName = L;
};
}
{
glyphname = M;
kernLeft = KO_M;
kernRight = KO_M;
layers = (
{
layerId = m001;
shapes = (
{
closed = 1;
nodes = (
(-89,416,o),
(-175,0,o),
(230,0,cs),
(628,0,o),
(1042,761,o),
(1207,1300,c),
(1307,1091,o),
(1239,709,o),
(1101,404,c),
(1008,310,o),
(908,182,o),
(908,120,cs),
(908,55,o),
(1086,-41,o),
(1212,-41,cs),
(1268,-41,o),
(1388,183,o),
(1408,339,c),
(1592,591,o),
(1894,886,o),
(2148,1140,c),
(2018,738,o),
(1789,194,o),
(1674,98,c),
(1780,-67,o),
(2269,-95,o),
(2269,280,cs),
(2269,613,o),
(2285,916,o),
(2368,1363,c),
(2413,1414,o),
(2477,1493,o),
(2477,1529,cs),
(2477,1560,o),
(2458,1593,o),
(2412,1593,cs),
(2351,1593,o),
(2290,1524,o),
(2219,1342,c),
(1987,1144,o),
(1641,876,o),
(1435,643,c),
(1517,1275,o),
(1360,1557,o),
(982,1557,cs),
(674,1557,o),
(302,1317,o),
(302,1013,cs),
(302,891,o),
(385,812,o),
(466,812,cs),
(508,812,o),
(594,871,o),
(623,910,c),
(573,957,o),
(520,1038,o),
(520,1118,cs),
(520,1312,o),
(741,1453,o),
(958,1453,cs),
(1042,1453,o),
(1105,1426,o),
(1152,1379,c),
(949,909,o),
(574,128,o),
(49,499,c)
);
}
);
width = 2407;
}
);
unicode = 77;
}
{
glyphname = N;
kernLeft = KO_N;
kernRight = KO_N;
layers = (
{
layerId = m001;
shapes = (
{
closed = 1;
nodes = (
(1645,293,o),
(1623,287,o),
(1601,287,cs),
(1530,287,o),
(1475,327,o),
(1475,415,cs),
(1475,791,o),
(1755,967,o),
(1755,1277,cs),
(1755,1465,o),
(1644,1558,o),
(1475,1558,cs),
(1177,1558,o),
(883,1287,o),
(601,930,c),
(775,1331,o),
(691,1613,o),
(506,1613,cs),
(460,1613,o),
(436,1591,o),
(434,1546,c),
(502,1543,o),
(519,1471,o),
(519,1354,cs),
(519,1082,o),
(107,543,o),
(107,189,cs),
(107,45,o),
(186,-27,o),
(243,-27,cs),
(309,-27,o),
(488,62,o),
(525,104,c),
(485,573,o),
(1037,1434,o),
(1448,1434,cs),
(1535,1434,o),
(1600,1389,o),
(1600,1293,cs),
(1600,1042,o),
(988,733,o),
(988,366,cs),
(988,84,o),
(1165,-33,o),
(1359,-33,cs),
(1551,-33,o),
(1710,138,o),
(1710,239,c),
(1710,258,o),
(1676,296,o),
(1667,302,c)
);
}
);
width = 1766;
}
);
unicode = 78;
userData = {
KernOnName = N;
};
}
{
glyphname = O;
kernLeft = KO_O;
kernRight = KO_O;
layers = (
{
layerId = m001;
shapes = (
{
closed = 1;
nodes = (
(1645,1436,o),
(1447,1558,o),
(1197,1558,cs),
(637,1558,o),
(56,1030,o),
(56,470,cs),
(56,130,o),
(294,-60,o),
(616,-60,cs),
(1104,-60,o),
(1545,424,o),
(1545,912,cs),
(1545,920,o),
(1543,928,o),
(1540,936,c),
(1602,1004,o),
(1645,1090,o),
(1645,1186,cs)
);
},
{
closed = 1;
nodes = (
(1291,782,o),
(1374,809,o),
(1447,858,c),
(1368,580,o),
(1099,297,o),
(799,297,cs),
(591,297,o),
(474,423,o),
(474,681,cs),
(474,1056,o),
(781,1448,o),
(1152,1448,cs),
(1333,1448,o),
(1406,1373,o),
(1406,1233,cs),
(1406,1081,o),
(1262,950,o),
(1126,881,c),
(1139,848,o),
(1187,789,o),
(1222,787,cs)
);
}
);
width = 1532;
}
);
unicode = 79;
userData = {
KernOnName = O;
};
}
{
glyphname = P;
kernLeft = KO_P;
kernRight = KO_P;
layers = (
{
layerId = m001;
shapes = (
{
closed = 1;
nodes = (
(953,1360,o),
(902,1383,o),
(872,1360,cs),
(558,1124,o),
(225,230,o),
(71,66,c),
(120,27,o),
(196,-39,o),
(391,-39,cs),
(561,-39,o),
(724,1124,o),
(986,1331,c)
);
},
{
closed = 1;
nodes = (
(395,1051,o),
(361,1114,o),
(361,1194,cs),
(361,1394,o),
(751,1491,o),
(951,1491,cs),
(1191,1491,o),
(1477,1410,o),
(1477,1170,cs),
(1477,910,o),
(1166,689,o),
(979,689,cs),
(879,689,o),
(832,701,o),
(787,719,c),
(787,719,o),
(721,464,o),
(746,401,cs),
(765,353,o),
(875,323,o),
(935,323,cs),
(1320,323,o),
(1696,753,o),
(1696,1113,cs),
(1696,1475,o),
(1308,1597,o),
(982,1597,cs),
(672,1597,o),
(147,1463,o),
(147,1153,cs),
(147,1031,o),
(219,907,o),
(300,907,cs),
(342,907,o),
(409,965,o),
(445,1004,c)
);
}
);
width = 1525;
}
);
unicode = 80;
userData = {
KernOnName = P;
};
}
{
glyphname = Q;
kernLeft = KO_Q;
kernRight = KO_Q;
layers = (
{
layerId = m001;
shapes = (
{
closed = 1;
nodes = (
(1570,841,o),
(1610,806,o),
(1610,768,cs),
(1610,531,o),
(1454,281,o),
(1237,108,c),
(1364,-79,o),
(1526,-246,o),
(1671,-246,cs),
(1710,-246,o),
(1749,-237,o),
(1789,-219,c),
(1789,-219,o),
(1830,-259,o),
(1809,-289,cs),
(1755,-366,o),
(1619,-483,o),
(1440,-483,cs),
(1213,-483,o),
(1070,-277,o),
(983,-45,c),
(880,-89,o),
(773,-114,o),
(668,-114,cs),
(346,-114,o),
(108,56,o),
(108,396,cs),
(108,915,o),
(652,1582,o),
(1281,1582,cs),
(1531,1582,o),
(1660,1456,o),
(1660,1299,cs),
(1660,993,o),
(1306,693,o),
(1019,562,c),
(1027,508,o),
(1060,421,o),
(1109,324,c),
(1328,440,o),
(1523,667,o),
(1535,838,c)
);
},
{
closed = 1;
nodes = (
(1194,734,o),
(1505,1009,o),
(1505,1276,cs),
(1505,1392,o),
(1417,1472,o),
(1277,1472,cs),
(837,1472,o),
(512,1063,o),
(512,571,cs),
(512,355,o),
(635,249,o),
(843,249,cs),
(861,249,o),
(880,250,o),
(899,253,c),
(865,417,o),
(854,555,o),
(854,597,c)
);
}
);
width = 1668;
}
);
unicode = 81;
}
{
glyphname = R;
kernLeft = KO_R;
kernRight = KO_R;
layers = (
{
layerId = m001;
shapes = (
{
closed = 1;
nodes = (
(1126,203,o),
(1153,-62,o),
(1436,-62,cs),
(1741,-62,o),
(1973,240,o),
(2065,460,cs),
(2089,518,o),
(2065,539,o),
(2030,536,c),
(1956,423,o),
(1785,273,o),
(1648,273,cs),
(1578,273,o),
(1523,384,o),
(1468,521,c),
(1706,628,o),
(1909,854,o),
(1909,1132,cs),
(1909,1419,o),
(1676,1572,o),
(1356,1572,cs),
(605,1572,o),
(75,731,o),
(75,279,cs),
(75,96,o),
(163,-22,o),
(296,-22,cs),
(488,-22,o),
(714,343,o),
(906,701,c),
(923,542,o),
(1027,468,o),
(1143,456,c)
);
},
{
closed = 1;
nodes = (
(1137,1018,o),
(1089,996,o),
(1043,965,c),
(1115,1104,o),
(1178,1224,o),
(1227,1300,c),
(1205,1315,o),
(1130,1360,o),
(1095,1300,cs),
(851,883,o),
(479,342,o),
(414,342,cs),
(284,342,o),
(511,1467,o),
(1325,1467,cs),
(1545,1467,o),
(1705,1394,o),
(1705,1188,cs),
(1705,1015,o),
(1554,829,o),
(1378,754,c),
(1319,898,o),
(1254,1018,o),
(1169,1018,cs)
);
},
{
closed = 1;
nodes = (
(1179,908,o),
(1179,834,o),
(1169,727,c),
(1052,762,o),
(1046,908,o),
(1138,908,cs)
);
}
);
width = 1847;
}
);
unicode = 82;
userData = {
KernOnName = R;
};
}
{
glyphname = S;
kernLeft = KO_S;
kernRight = KO_S;
layers = (
{
layerId = m001;
shapes = (
{
closed = 1;
nodes = (
(913,361,o),
(773,298,o),
(603,298,cs),
(387,298,o),
(220,404,o),
(148,588,c),
(118,581,o),
(70,555,o),
(68,531,cs),
(40,142,o),
(302,-95,o),
(613,-95,cs),
(978,-95,o),
(1299,105,o),
(1299,490,cs),
(1299,849,o),
(835,1038,o),
(835,1234,cs),
(835,1358,o),
(988,1434,o),
(1149,1434,cs),
(1297,1434,o),
(1434,1351,o),
(1486,1265,c),
(1522,1290,o),
(1577,1353,o),
(1577,1400,cs),
(1577,1508,o),
(1380,1557,o),
(1214,1557,cs),
(932,1557,o),
(633,1417,o),
(633,1154,cs),
(633,919,o),
(913,748,o),
(913,531,cs)
);
}
);
width = 1368;
}
);
unicode = 83;
userData = {
KernOnName = S;
};
}
{
glyphname = T;
kernLeft = KO_T;
kernRight = KO_T;
layers = (
{
layerId = m001;
shapes = (
{
closed = 1;
nodes = (
(408,956,o),
(360,1017,o),
(360,1111,cs),
(360,1269,o),
(663,1302,o),
(983,1331,c),
(902,658,o),
(174,537,o),
(174,243,cs),
(174,104,o),
(327,-63,o),
(445,-63,cs),
(629,-63,o),
(883,190,o),
(985,435,cs),
(1042,571,o),
(1112,1052,o),
(1095,1341,c),
(1415,1370,o),
(1719,1408,o),
(1719,1574,cs),
(1719,1656,o),
(1676,1733,o),
(1609,1733,cs),
(1540,1733,o),
(1483,1638,o),
(1464,1540,cs),
(1432,1375,o),
(83,1539,o),
(83,1064,cs),
(83,947,o),
(194,828,o),
(238,828,cs),
(282,828,o),
(408,876,o),
(408,916,cs)
);
}
);
width = 1199;
}
);
unicode = 84;
userData = {
KernOnName = T;
};
}
{
glyphname = U;
kernLeft = KO_U;
kernRight = KO_U;
layers = (
{
layerId = m001;
shapes = (
{
closed = 1;
nodes = (
(1375,181,o),
(1315,266,o),
(1315,398,cs),
(1315,712,o),
(1689,1260,o),
(1689,1511,cs),
(1689,1573,o),
(1652,1592,o),
(1589,1584,c),
(1449,1004,o),
(877,373,o),
(604,373,cs),
(544,373,o),
(513,413,o),
(513,494,cs),
(513,711,o),
(753,1011,o),
(753,1283,cs),
(753,1445,o),
(681,1556,o),
(568,1556,cs),
(531,1556,o),
(511,1531,o),
(503,1498,c),
(578,1488,o),
(609,1431,o),
(609,1350,cs),
(609,974,o),
(103,613,o),
(103,271,cs),
(103,80,o),
(219,-20,o),
(386,-20,cs),
(619,-20,o),
(838,131,o),
(906,226,c),
(878,34,o),
(944,-94,o),
(1125,-94,cs),
(1277,-94,o),
(1474,93,o),
(1474,175,cs),
(1474,194,o),
(1448,212,o),
(1439,218,c)
);
}
);
width = 1566;
}
);
unicode = 85;
}
{
glyphname = V;
kernLeft = KO_V;
kernRight = KO_V;
layers = (
{
layerId = m001;
shapes = (
{
closed = 1;
nodes = (
(240,957,o),
(187,1038,o),
(187,1118,cs),
(187,1304,o),
(349,1459,o),
(466,1459,cs),
(870,1459,o),
(643,521,o),
(486,245,c),
(445,220,o),
(375,148,o),
(375,98,cs),
(375,10,o),
(562,-110,o),
(654,-110,cs),
(730,-110,o),
(800,-38,o),
(855,74,c),
(1046,318,o),
(1639,986,o),
(1639,1438,cs),
(1639,1526,o),
(1603,1624,o),
(1515,1624,cs),
(1487,1624,o),
(1464,1611,o),
(1438,1589,c),
(1482,1530,o),
(1489,1453,o),
(1489,1400,cs),
(1489,1092,o),
(1229,795,o),
(980,559,c),
(1027,1024,o),
(913,1561,o),
(497,1561,cs),
(246,1561,o),
(-31,1285,o),
(-31,1013,cs),
(-31,891,o),
(52,812,o),
(133,812,cs),
(175,812,o),
(261,871,o),
(290,910,c)
);
}
);
width = 1456;
}
);
unicode = 86;
userData = {
KernOnName = V;
};
}
{
glyphname = W;
kernLeft = KO_W;
kernRight = KO_W;
layers = (
{
layerId = m001;
shapes = (
{
closed = 1;
nodes = (
(179,1315,o),
(312,1433,o),
(433,1433,cs),
(809,1433,o),
(83,679,o),
(83,173,cs),
(83,73,o),
(150,-10,o),
(266,-10,cs),
(554,-10,o),
(840,258,o),
(1067,589,c),
(970,198,o),
(1014,-30,o),
(1246,-30,cs),
(1686,-30,o),
(2227,932,o),
(2227,1440,cs),
(2227,1526,o),
(2191,1624,o),
(2103,1624,cs),
(2075,1624,o),
(2052,1611,o),
(2026,1589,c),
(2070,1530,o),
(2077,1454,o),
(2077,1400,cs),
(2077,1008,o),
(1691,395,o),
(1465,395,cs),
(1343,395,o),
(1397,960,o),
(1485,1322,c),
(1539,1413,o),
(1592,1556,o),
(1514,1556,cs),
(1472,1556,o),
(1393,1541,o),
(1360,1460,cs),
(1317,1355,o),
(1262,1205,o),
(1212,1083,c),
(994,697,o),
(745,456,o),
(640,456,cs),
(601,456,o),
(581,489,o),
(581,526,cs),
(581,719,o),
(1009,1561,o),
(465,1557,cs),
(316,1556,o),
(73,1429,o),
(73,1319,cs),
(73,1278,o),
(132,1249,o),
(132,1249,c)
);
}
);
width = 2109;
}
);
unicode = 87;
userData = {
KernOnName = W;
};
}
{
glyphname = X;
kernLeft = KO_X;
kernRight = KO_X;
layers = (
{
layerId = m001;
shapes = (
{
closed = 1;
nodes = (
(73,417,o),
(-82,1,o),
(154,1,cs),
(399,1,o),
(652,133,o),
(877,321,c),
(928,118,o),
(1018,-30,o),
(1206,-30,cs),
(1481,-30,o),
(1741,208,o),
(1846,460,cs),
(1870,518,o),
(1846,539,o),
(1811,536,c),
(1737,423,o),
(1584,315,o),
(1483,315,cs),
(1375,315,o),
(1305,478,o),
(1229,686,c),
(1489,1016,o),
(1648,1374,o),
(1596,1533,cs),
(1586,1563,o),
(1544,1562,o),
(1505,1553,c),
(1494,1383,o),
(1351,1129,o),
(1151,901,c),
(1029,1229,o),
(867,1574,o),
(533,1574,cs),
(495,1574,o),
(474,1537,o),
(472,1492,c),
(762,1459,o),
(777,1004,o),
(828,600,c),
(649,467,o),
(457,377,o),
(284,377,cs),
(165,377,o),
(73,417,o),
(73,417,c)
);
}
);
width = 1628;
}
);
unicode = 88;
userData = {
KernOnName = X;
};
}
{
glyphname = Y;
kernLeft = KO_Y;
kernRight = KO_Y;
layers = (
{
layerId = m001;
shapes = (
{
closed = 1;
nodes = (
(1786,1601,o),
(1751,1634,o),
(1724,1624,cs),
(1463,1528,o),
(1240,1179,o),
(1025,861,c),
(982,1273,o),
(805,1559,o),
(548,1559,cs),
(321,1559,o),
(199,1397,o),
(309,1336,c),
(343,1385,o),
(406,1450,o),
(510,1450,cs),
(795,1450,o),
(862,828,o),
(689,429,c),
(597,341,o),
(504,286,o),
(408,286,cs),
(290,286,o),
(178,360,o),
(143,429,c),
(113,422,o),
(63,396,o),
(63,372,cs),
(63,225,o),
(192,-119,o),
(495,-119,cs),
(1174,-119,o),
(1200,1171,o),
(1795,1572,c)
);
}
);
width = 1361;
}
);
unicode = 89;
userData = {
KernOnName = Y;
};
}
{
glyphname = Z;
kernLeft = KO_Z;
kernRight = KO_Z;
layers = (
{
layerId = m001;
shapes = (
{
closed = 1;
nodes = (
(1393,130,o),
(1489,255,o),
(1290,322,cs),
(1074,395,o),
(637,354,o),
(637,354,c),
(637,354,o),
(1704,901,o),
(1704,1279,cs),
(1704,1445,o),
(1564,1561,o),
(1270,1561,cs),
(811,1561,o),
(352,1438,o),
(352,1205,cs),
(352,1125,o),
(489,1084,o),
(545,1084,cs),
(565,1084,o),
(589,1102,o),
(607,1129,c),
(563,1152,o),
(540,1188,o),
(540,1223,cs),
(540,1362,o),
(910,1444,o),
(1202,1444,cs),
(1432,1444,o),
(1493,1413,o),
(1493,1322,cs),
(1493,929,o),
(104,451,o),
(-8,329,cs),
(-83,247,o),
(-40,-78,o),
(124,-27,cs),
(451,75,o),
(1122,126,o),
(1335,55,c)
);
}
);
width = 1477;
}
);
unicode = 90;
}
{
glyphname = bracketleft;
kernRight = KO_bracketleft;
layers = (
{
layerId = m001;
shapes = (
{
closed = 1;
nodes = (
(1305,1478,o),
(1335,1540,o),
(1325,1547,cs),
(1277,1580,o),
(1024,1595,o),
(987,1562,cs),
(778,1378,o),
(118,163,o),
(118,-234,cs),
(118,-322,o),
(499,-351,o),
(593,-335,cs),
(635,-328,o),
(680,-137,o),
(680,-137,c),
(620,-141,o),
(497,-123,o),
(455,-111,c),
(568,370,o),
(951,1359,o),
(1072,1474,c),
(1131,1477,o),
(1254,1469,o),
(1295,1463,c)
);
}
);
width = 988;
}
);
unicode = 91;
userData = {
KernOnSpecialSpacing = {
L = NoKerning;
R = parenthesis;
};
};
}
{
glyphname = backslash;
kernLeft = KO_backslash;
kernRight = KO_backslash;
layers = (
{
layerId = m001;
shapes = (
{
closed = 1;
nodes = (
(682,-244,o),
(726,-213,o),
(726,-151,cs),
(726,74,o),
(424,1666,o),
(334,1666,cs),
(312,1666,o),
(278,1656,o),
(260,1650,c),
(334,1449,o),
(549,56,o),
(524,-247,c)
);
}
);
width = 1016;
}
);
unicode = 92;
userData = {
KernOnSpecialSpacing = {
L = "spaced-off";
R = "spaced-off";
};
};
}
{
glyphname = bracketright;
kernLeft = KO_bracketright;
layers = (
{
layerId = m001;
shapes = (
{
closed = 1;
nodes = (
(37,-176,o),
(21,-310,o),
(36,-334,cs),
(55,-365,o),
(436,-384,o),
(483,-349,cs),
(588,-271,o),
(1044,1026,o),
(1122,1548,cs),
(1128,1587,o),
(865,1592,o),
(798,1581,cs),
(746,1572,o),
(738,1477,o),
(738,1477,c),
(825,1475,o),
(921,1472,o),
(976,1460,c),
(852,1042,o),
(336,-9,o),
(243,-124,c),
(159,-135,o),
(55,-126,o),
(55,-126,c)
);
}
);
width = 1149;
}
);
unicode = 93;
userData = {
KernOnSpecialSpacing = {
L = parenthesis;
R = NoKerning;
};
};
}
{
glyphname = asciicircum;
kernLeft = KO_asciicircum;
kernRight = KO_asciicircum;
layers = (
{
layerId = m001;
shapes = (
{
closed = 1;
nodes = (
(936,453,o),
(797,736,o),
(757,852,c),
(741,866,o),
(693,869,o),
(669,872,c),
(629,758,o),
(238,453,o),
(161,400,c),
(171,375,o),
(237,325,o),
(258,325,cs),
(320,325,o),
(530,459,o),
(661,567,c),
(731,457,o),
(849,327,o),
(935,327,cs),
(956,327,o),
(1002,375,o),
(1013,400,c)
);
}
);
width = 1200;
}
);
unicode = 94;
userData = {
KernOnSpecialSpacing = {
L = math;
R = math;
};
};
}
{
glyphname = underscore;
kernLeft = KO_underscore;
kernRight = KO_underscore;
layers = (
{
layerId = m001;
shapes = (
{
closed = 1;
nodes = (
(1240,0,l),
(1278,124,l),
(0,124,l),
(-38,0,l)
);
}
);
width = 1279;
}
);
unicode = 95;
userData = {
KernOnSpecialSpacing = {
L = underscore;
R = underscore;
};
};
}
{
glyphname = grave;
layers = (
{
layerId = m001;
shapes = (
{
closed = 1;
nodes = (
(851,1146,o),
(730,1367,o),
(697,1462,c),
(652,1462,o),
(548,1394,o),
(548,1342,cs),
(548,1221,o),
(743,1041,o),
(850,1041,cs),
(867,1041,o),
(906,1081,o),
(915,1102,c)
);
}
);
width = 1200;
}
);
unicode = 96;
}
{
glyphname = a;
kernLeft = KO_a;
kernRight = KO_a;
layers = (
{
layerId = m001;
shapes = (
{
closed = 1;
nodes = (
(1286,423,o),
(1158,317,o),
(1053,317,cs),
(893,317,o),
(1118,825,o),
(1141,893,c),
(1141,893,o),
(1028,927,o),
(988,873,c),
(978,861,l),
(956,877,o),
(919,886,o),
(865,886,cs),
(440,886,o),
(38,579,o),
(38,270,cs),
(38,110,o),
(144,0,o),
(312,0,cs),
(469,0,o),
(581,85,o),
(646,160,c),
(642,47,o),
(746,0,o),
(858,0,cs),
(1106,0,o),
(1333,310,o),
(1395,460,cs),
(1419,518,o),
(1395,539,o),
(1360,536,c)
);
},
{
closed = 1;
nodes = (
(394,317,o),
(360,358,o),
(360,433,cs),
(360,614,o),
(587,791,o),
(931,794,c),
(811,619,o),
(616,317,o),
(457,317,cs)
);
}
);
width = 1177;
}
);
unicode = 97;
userData = {
KernOnName = a;
};
}
{
glyphname = b;
kernLeft = KO_b;
kernRight = KO_s;
layers = (
{
layerId = m001;
shapes = (
{
closed = 1;
nodes = (
(1167,405,o),
(1042,318,o),
(918,301,c),
(988,402,o),
(1030,518,o),
(1030,630,cs),
(1030,775,o),
(946,885,o),
(760,885,cs),
(672,885,o),
(580,854,o),
(499,806,c),
(601,1024,o),
(743,1247,o),
(804,1342,c),
(771,1393,o),
(686,1394,o),
(647,1349,cs),
(504,1183,o),
(44,564,o),
(44,321,cs),
(44,103,o),
(195,-1,o),
(363,-1,c),
(364,-1,l),
(365,-1,l),
(811,-1,o),
(1149,124,o),
(1288,460,cs),
(1312,518,o),
(1288,539,o),
(1253,536,c)
);
},
{
closed = 1;
nodes = (
(801,780,o),
(848,729,o),
(848,665,cs),
(848,507,o),
(637,321,o),
(479,321,cs),
(421,321,o),
(383,366,o),
(383,424,cs),
(383,455,o),
(388,491,o),
(396,529,c),
(455,662,o),
(602,780,o),
(735,780,cs)
);
}
);
width = 1070;
}
);
unicode = 98;
userData = {
KernOnName = b;
};
}
{
glyphname = c;
kernLeft = KO_e;
kernRight = KO_c;
layers = (
{
layerId = m001;
shapes = (
{
closed = 1;
nodes = (
(930,378,o),
(790,290,o),
(623,290,cs),
(510,290,o),
(420,353,o),
(420,468,cs),
(420,610,o),
(538,766,o),
(680,766,cs),
(743,766,o),
(795,739,o),
(820,726,c),
(845,735,o),
(859,757,o),
(859,781,cs),
(859,831,o),
(776,885,o),
(681,885,cs),
(414,885,o),
(50,608,o),
(50,333,cs),
(50,105,o),
(194,-15,o),
(422,-15,cs),
(721,-15,o),
(965,209,o),
(1069,460,cs),
(1093,518,o),
(1069,539,o),
(1034,536,c)
);
}
);
width = 851;
}
);
unicode = 99;
userData = {
KernOnName = c;
};
}
{
glyphname = d;
kernLeft = KO_d;
kernRight = KO_d;
layers = (
{
layerId = m001;
shapes = (
{
closed = 1;
nodes = (
(1306,423,o),
(1178,317,o),
(1073,317,cs),
(1028,317,o),
(1012,355,o),
(1012,410,cs),
(1012,589,o),
(1320,1166,o),
(1433,1342,c),
(1400,1393,o),
(1310,1398,o),
(1276,1349,cs),
(1178,1208,o),
(934,792,o),
(822,608,cs),
(724,447,o),
(590,319,o),
(458,319,cs),
(394,319,o),
(360,359,o),
(360,435,cs),
(360,600,o),
(600,808,o),
(921,808,c),
(927,850,o),
(910,887,o),
(842,887,cs),
(430,888,o),
(38,549,o),
(38,271,cs),
(38,112,o),
(144,2,o),
(312,2,cs),
(470,2,o),
(601,84,o),
(666,160,c),
(663,47,o),
(766,0,o),
(878,0,cs),
(1126,0,o),
(1353,310,o),
(1415,460,cs),
(1439,518,o),
(1415,539,o),
(1380,536,c)
);
}
);
width = 1197;
}
);
unicode = 100;
userData = {
KernOnName = d;
};
}
{
glyphname = e;
kernLeft = KO_e;
kernRight = KO_e;
layers = (
{
layerId = m001;
shapes = (
{
closed = 1;
nodes = (
(1027,374,o),
(867,289,o),
(698,289,cs),
(582,289,o),
(474,320,o),
(435,393,c),
(670,420,o),
(971,517,o),
(971,739,cs),
(971,839,o),
(877,885,o),
(777,885,cs),
(410,885,o),
(50,607,o),
(50,325,cs),
(50,73,o),
(245,-10,o),
(497,-10,cs),
(831,-10,o),
(1071,224,o),
(1169,460,cs),
(1193,518,o),
(1169,539,o),
(1134,536,c)
);
},
{
closed = 1;
nodes = (
(714,778,o),
(738,749,o),
(738,696,cs),
(738,586,o),
(585,505,o),
(421,486,c),
(433,629,o),
(531,778,o),
(664,778,cs)
);
}
);
width = 951;
}
);
unicode = 101;
userData = {
KernOnName = e;
};
}
{
glyphname = f;
kernLeft = KO_f;
kernRight = KO_f;
layers = (
{
layerId = m001;
shapes = (
{
closed = 1;
nodes = (
(983,411,o),
(852,296,o),
(723,296,cs),
(705,296,o),
(687,298,o),
(669,303,c),
(671,485,o),
(625,635,o),
(522,671,c),
(804,742,o),
(1069,997,o),
(1069,1227,cs),
(1069,1325,o),
(1017,1396,o),
(950,1396,cs),
(791,1396,o),
(476,1028,o),
(251,625,c),
(147,586,o),
(51,533,o),
(47,497,cs),
(41,446,o),
(67,392,o),
(110,339,c),
(37,168,o),
(-8,5,o),
(-8,-124,cs),
(-8,-314,o),
(49,-501,o),
(205,-501,cs),
(416,-501,o),
(568,-247,o),
(633,25,c),
(646,23,o),
(657,22,o),
(667,22,cs),
(857,22,o),
(1036,305,o),
(1100,460,cs),
(1124,518,o),
(1100,539,o),
(1065,536,c)
);
},
{
closed = 1;
nodes = (
(922,1250,o),
(930,1224,o),
(930,1195,cs),
(930,1037,o),
(751,847,o),
(564,790,c),
(676,1051,o),
(810,1250,o),
(895,1250,cs)
);
},
{
closed = 1;
nodes = (
(374,-187,o),
(369,-125,o),
(369,-24,cs),
(369,24,o),
(372,75,o),
(378,128,c),
(428,100,o),
(478,76,o),
(523,58,c),
(495,-77,o),
(450,-187,o),
(406,-187,cs)
);
},
{
closed = 1;
nodes = (
(459,504,o),
(470,537,o),
(481,570,c),
(528,547,o),
(549,464,o),
(552,361,c),
(509,394,o),
(473,434,o),
(449,470,c)
);
}
);
width = 882;
}
);
unicode = 102;
userData = {
KernOnName = f;
};
}
{
glyphname = g;
kernLeft = KO_d;
kernRight = KO_g;
layers = (
{
layerId = m001;
shapes = (
{
closed = 1;
nodes = (
(1191,398,o),
(1016,275,o),
(864,254,c),
(942,484,o),
(1016,722,o),
(1126,896,c),
(1094,922,o),
(1026,929,o),
(971,866,c),
(948,879,o),
(913,886,o),
(865,886,cs),
(440,886,o),
(38,579,o),
(38,270,cs),
(38,110,o),
(144,0,o),
(283,0,cs),
(434,0,o),
(534,80,o),
(601,150,c),
(505,-22,o),
(402,-156,o),
(299,-156,cs),
(231,-156,o),
(97,-104,o),
(59,-57,c),
(-14,-74,o),
(-92,-151,o),
(-92,-220,cs),
(-92,-388,o),
(83,-500,o),
(251,-500,cs),
(521,-500,o),
(666,-272,o),
(779,15,c),
(998,62,o),
(1217,218,o),
(1317,460,cs),
(1341,518,o),
(1317,539,o),
(1282,536,c)
);
},
{
closed = 1;
nodes = (
(764,550,o),
(596,317,o),
(457,317,cs),
(394,317,o),
(360,358,o),
(360,433,cs),
(360,613,o),
(583,787,o),
(922,794,c),
(910,773,o),
(897,750,o),
(884,725,c)
);
}
);
width = 1099;
}
);
unicode = 103;
userData = {
KernOnName = g;
};
}
{
glyphname = h;
kernLeft = KO_h;
kernRight = KO_a;
layers = (
{
layerId = m001;
shapes = (
{
closed = 1;
nodes = (
(1333,423,o),
(1205,317,o),
(1100,317,cs),
(1045,317,o),
(1033,367,o),
(1033,422,cs),
(1033,565,o),
(1272,833,o),
(1100,833,cs),
(900,833,o),
(627,701,o),
(468,556,c),
(494,629,o),
(523,700,o),
(553,767,c),
(789,849,o),
(1089,1068,o),
(1089,1225,cs),
(1089,1323,o),
(1017,1396,o),
(950,1396,cs),
(754,1396,o),
(50,651,o),
(50,249,cs),
(50,75,o),
(127,0,o),
(268,0,cs),
(320,0,o),
(355,12,o),
(355,40,c),
(360,140,o),
(378,244,o),
(404,347,c),
(506,491,o),
(791,655,o),
(891,655,cs),
(916,655,o),
(669,428,o),
(669,225,cs),
(669,75,o),
(731,-9,o),
(881,-9,cs),
(1150,-9,o),
(1380,310,o),
(1442,460,cs),
(1466,518,o),
(1442,539,o),
(1407,536,c)
);
},
{
closed = 1;
nodes = (
(908,1250,o),
(924,1209,o),
(924,1169,cs),
(924,1088,o),
(780,960,o),
(609,883,c),
(720,1100,o),
(835,1250,o),
(881,1250,cs)
);
}
);
width = 1224;
}
);
unicode = 104;
}
{
glyphname = i;
kernLeft = KO_i;
kernRight = KO_i;
layers = (
{
layerId = m001;
shapes = (
{
closed = 1;
nodes = (
(779,423,o),
(651,317,o),
(546,317,cs),
(468,317,o),
(421,369,o),
(421,437,cs),
(421,534,o),
(488,686,o),
(625,832,c),
(605,858,o),
(548,883,o),
(534,883,cs),
(424,883,o),
(49,481,o),
(49,229,cs),
(49,48,o),
(168,-6,o),
(280,-6,cs),
(599,-6,o),
(826,310,o),
(888,460,cs),
(912,518,o),
(888,539,o),
(853,536,c)
);
},
{
closed = 1;
nodes = (
(508,1108,o),
(584,1062,o),
(664,1062,cs),
(770,1062,o),
(937,1118,o),
(937,1224,cs),
(937,1312,o),
(872,1372,o),
(766,1372,cs),
(605,1372,o),
(508,1295,o),
(508,1188,cs)
);
}
);
width = 670;
}
);
unicode = 105;
}
{
glyphname = j;
kernLeft = KO_j;
kernRight = KO_j;
layers = (
{
layerId = m001;
shapes = (
{
closed = 1;
nodes = (
(-303,-429,o),
(-228,-500,o),
(-124,-500,cs),
(59,-500,o),
(93,-316,o),
(179,9,c),
(406,48,o),
(633,207,o),
(737,460,cs),
(761,518,o),
(737,539,o),
(702,536,c),
(614,402,o),
(406,284,o),
(250,258,c),
(305,436,o),
(380,642,o),
(496,872,c),
(420,911,o),
(370,891,o),
(337,832,cs),
(151,500,o),
(-218,-290,o),
(-325,-375,c)
);
},
{
closed = 1;
nodes = (
(339,1108,o),
(406,1062,o),
(486,1062,cs),
(592,1062,o),
(747,1130,o),
(747,1224,cs),
(747,1303,o),
(692,1372,o),
(586,1372,cs),
(425,1372,o),
(339,1295,o),
(339,1188,cs)
);
}
);
width = 519;
}
);
unicode = 106;
}
{
glyphname = k;
kernLeft = KO_h;
kernRight = KO_k;
layers = (
{
layerId = m001;
shapes = (
{
closed = 1;
nodes = (
(1133,423,o),
(1005,317,o),
(900,317,cs),
(828,317,o),
(795,365,o),
(766,450,c),
(892,520,o),
(1067,679,o),
(1067,801,cs),
(1067,856,o),
(1034,889,o),
(971,889,cs),
(839,889,o),
(658,816,o),
(512,704,c),
(641,986,o),
(824,1213,o),
(964,1352,c),
(937,1378,o),
(913,1388,o),
(888,1388,cs),
(735,1388,o),
(50,667,o),
(50,249,cs),
(50,69,o),
(108,0,o),
(288,0,cs),
(320,0,o),
(355,12,o),
(355,40,cs),
(357,196,o),
(384,346,o),
(428,486,c),
(541,640,o),
(797,769,o),
(872,769,cs),
(889,769,o),
(901,762,o),
(901,747,cs),
(901,640,o),
(586,480,o),
(470,436,c),
(474,272,o),
(475,-9,o),
(681,-9,cs),
(950,-9,o),
(1180,310,o),
(1242,460,cs),
(1266,518,o),
(1242,539,o),
(1207,536,c)
);
}
);
width = 1024;
}
);
unicode = 107;
}
{
glyphname = l;
kernLeft = KO_l;
kernRight = KO_l;
layers = (
{
layerId = m001;
shapes = (
{
closed = 1;
nodes = (
(887,374,o),
(735,317,o),
(610,317,cs),
(503,317,o),
(439,345,o),
(425,500,c),
(651,636,o),
(965,925,o),
(965,1203,cs),
(965,1310,o),
(935,1390,o),
(854,1390,cs),
(641,1390,o),
(50,833,o),
(50,382,cs),
(50,148,o),
(137,0,o),
(385,0,cs),
(714,0,o),
(941,250,o),
(1028,460,cs),
(1052,518,o),
(1028,539,o),
(993,536,c)
);
},
{
closed = 1;
nodes = (
(810,1227,o),
(825,1176,o),
(825,1136,cs),
(825,982,o),
(646,761,o),
(425,621,c),
(450,900,o),
(664,1227,o),
(783,1227,cs)
);
}
);
width = 810;
}
);
unicode = 108;
userData = {
KernOnName = l;
};
}
{
glyphname = m;
kernLeft = KO_n;
kernRight = KO_m;
layers = (
{
layerId = m001;
shapes = (
{
closed = 1;
nodes = (
(946,118,o),
(1003,273,o),
(1062,428,c),
(1155,563,o),
(1324,700,o),
(1419,700,cs),
(1482,700,o),
(1187,434,o),
(1187,193,cs),
(1187,65,o),
(1291,-7,o),
(1419,-7,cs),
(1740,-7,o),
(1903,310,o),
(1965,461,cs),
(1988,518,o),
(1965,539,o),
(1930,536,c),
(1856,423,o),
(1772,310,o),
(1664,310,cs),
(1608,310,o),
(1575,336,o),
(1575,392,cs),
(1575,534,o),
(1885,888,o),
(1650,888,cs),
(1474,888,o),
(1281,786,o),
(1147,663,c),
(1186,792,o),
(1194,888,o),
(1109,888,cs),
(909,888,o),
(646,757,o),
(491,614,c),
(523,703,o),
(559,787,o),
(596,864,c),
(576,893,o),
(511,898,o),
(471,879,cs),
(293,791,o),
(50,501,o),
(50,259,cs),
(50,73,o),
(201,0,o),
(312,0,cs),
(344,0,o),
(379,12,o),
(379,40,cs),
(381,166,o),
(399,289,o),
(428,405,c),
(526,549,o),
(782,707,o),
(882,707,cs),
(908,707,o),
(645,462,o),
(645,221,cs),
(645,35,o),
(776,-6,o),
(887,-6,cs),
(919,-6,o),
(962,6,o),
(962,34,c)
);
}
);
width = 1747;
}
);
unicode = 109;
}
{
glyphname = n;
kernLeft = KO_n;
kernRight = KO_n;
layers = (
{
layerId = m001;
shapes = (
{
closed = 1;
nodes = (
(1278,411,o),
(1149,306,o),
(1053,306,cs),
(1010,306,o),
(990,339,o),
(990,394,cs),
(990,536,o),
(1231,888,o),
(1059,888,cs),
(866,888,o),
(638,766,o),
(496,628,c),
(526,712,o),
(561,791,o),
(596,864,c),
(576,893,o),
(511,898,o),
(471,879,cs),
(293,791,o),
(50,489,o),
(50,247,cs),
(50,61,o),
(201,-2,o),
(312,-2,cs),
(344,-2,o),
(379,10,o),
(379,38,cs),
(381,165,o),
(400,289,o),
(429,407,c),
(524,550,o),
(752,707,o),
(852,707,cs),
(878,707,o),
(624,461,o),
(624,220,cs),
(624,65,o),
(710,-19,o),
(849,-19,cs),
(1124,-19,o),
(1330,304,o),
(1395,460,cs),
(1419,518,o),
(1395,539,o),
(1360,536,c)
);
}
);
width = 1182;
}
);
unicode = 110;
userData = {
KernOnName = n;
};
}
{
glyphname = o;
kernLeft = KO_o;
kernRight = KO_o;
layers = (
{
layerId = m001;
shapes = (
{
closed = 1;
nodes = (
(1160,440,o),
(1059,336,o),
(922,306,c),
(973,397,o),
(1001,500,o),
(1001,608,cs),
(1001,802,o),
(797,944,o),
(554,897,cs),
(521,890,o),
(494,850,o),
(498,812,c),
(249,733,o),
(38,504,o),
(38,270,cs),
(38,110,o),
(138,-6,o),
(357,-6,cs),
(363,-6,o),
(370,-5,o),
(377,-5,cs),
(378,-5,o),
(380,-6,o),
(382,-6,cs),
(879,-6,o),
(1152,208,o),
(1258,460,cs),
(1282,518,o),
(1258,539,o),
(1223,536,c)
);
},
{
closed = 1;
nodes = (
(394,317,o),
(360,358,o),
(360,433,cs),
(360,588,o),
(442,723,o),
(605,768,c),
(841,688,o),
(625,317,o),
(457,317,cs)
);
}
);
width = 1040;
}
);
unicode = 111;
userData = {
KernOnName = o;
};
}
{
glyphname = p;
kernLeft = KO_p;
kernRight = KO_c;
layers = (
{
layerId = m001;
shapes = (
{
closed = 1;
nodes = (
(1245,423,o),
(1101,310,o),
(993,310,cs),
(937,310,o),
(904,336,o),
(904,392,cs),
(904,534,o),
(1324,888,o),
(1059,888,cs),
(885,888,o),
(663,789,o),
(506,668,c),
(541,747,o),
(573,815,o),
(596,864,c),
(576,893,o),
(511,898,o),
(471,879,cs),
(247,769,o),
(-177,-12,o),
(-177,-254,cs),
(-177,-440,o),
(-59,-499,o),
(52,-499,cs),
(84,-499,o),
(119,-487,o),
(119,-459,cs),
(122,-275,o),
(271,122,o),
(409,447,c),
(517,576,o),
(718,700,o),
(808,700,cs),
(936,700,o),
(516,434,o),
(516,193,cs),
(516,65,o),
(620,-7,o),
(748,-7,cs),
(1069,-7,o),
(1292,310,o),
(1354,461,cs),
(1377,518,o),
(1354,539,o),
(1319,536,c)
);
}
);
width = 1136;
}
);
unicode = 112;
}
{
glyphname = q;
kernLeft = KO_d;
kernRight = KO_g;
layers = (
{
layerId = m001;
shapes = (
{
closed = 1;
nodes = (
(1193,401,o),
(1025,281,o),
(876,255,c),
(980,516,o),
(1102,761,o),
(1178,864,c),
(1158,893,o),
(1088,906,o),
(1053,879,cs),
(1038,868,o),
(1022,854,o),
(1005,837,c),
(989,868,o),
(941,886,o),
(865,886,cs),
(440,886,o),
(38,579,o),
(38,270,cs),
(38,110,o),
(144,0,o),
(283,0,cs),
(364,0,o),
(432,32,o),
(488,74,c),
(425,-58,o),
(384,-178,o),
(384,-261,cs),
(384,-407,o),
(461,-499,o),
(607,-499,cs),
(639,-499,o),
(674,-487,o),
(674,-459,cs),
(676,-347,o),
(721,-172,o),
(786,16,c),
(1003,65,o),
(1218,221,o),
(1317,460,cs),
(1341,518,o),
(1317,539,o),
(1282,536,c)
);
},
{
closed = 1;
nodes = (
(751,552,o),
(594,317,o),
(457,317,cs),
(394,317,o),
(360,358,o),
(360,433,cs),
(360,618,o),
(605,798,o),
(962,794,c),
(813,633,o),
(610,331,o),
(488,74,c),
(561,129,o),
(614,202,o),
(651,245,c),
(878,693,l)
);
}
);
width = 1099;
}
);
unicode = 113;
}
{
glyphname = r;
kernLeft = KO_r;
kernRight = KO_r;
layers = (
{
layerId = m001;
shapes = (
{
closed = 1;
nodes = (
(179,377,o),
(261,504,o),
(331,625,c),
(390,612,o),
(459,604,o),
(535,600,c),
(375,512,o),
(248,356,o),
(248,221,cs),
(248,67,o),
(381,0,o),
(535,0,cs),
(784,0,o),
(1011,310,o),
(1073,460,cs),
(1097,518,o),
(1073,539,o),
(1038,536,c),
(964,423,o),
(836,317,o),
(730,317,cs),
(646,317,o),
(619,354,o),
(619,410,cs),
(619,469,o),
(673,545,o),
(728,595,c),
(766,595,o),
(808,669,o),
(814,720,c),
(666,728,o),
(543,751,o),
(426,808,c),
(447,854,o),
(460,893,o),
(460,916,cs),
(460,993,o),
(339,1014,o),
(291,1014,cs),
(252,1014,o),
(121,870,o),
(121,794,cs),
(121,732,o),
(160,689,o),
(226,658,c),
(188,557,o),
(121,438,o),
(-24,337,c),
(-9,306,o),
(110,278,o),
(129,306,cs)
);
}
);
width = 855;
}
);
unicode = 114;
userData = {
KernOnName = r;
};
}
{
glyphname = s;
kernLeft = KO_s;
kernRight = KO_s;
layers = (
{
layerId = m001;
shapes = (
{
closed = 1;
nodes = (
(1106,417,o),
(979,311,o),
(840,276,c),
(845,300,o),
(848,326,o),
(848,353,cs),
(848,523,o),
(791,694,o),
(796,824,c),
(831,828,o),
(867,828,o),
(903,826,c),
(942,891,o),
(904,938,o),
(828,938,cs),
(613,938,o),
(331,768,o),
(198,568,c),
(121,520,o),
(37,440,o),
(37,373,cs),
(37,161,o),
(171,-6,o),
(383,-6,cs),
(401,-6,o),
(419,-5,o),
(437,-4,c),
(882,0,o),
(1124,240,o),
(1220,460,cs),
(1245,518,o),
(1220,539,o),
(1185,536,c)
);
},
{
closed = 1;
nodes = (
(388,344,o),
(323,440,o),
(294,561,c),
(372,656,o),
(507,750,o),
(661,797,c),
(624,614,o),
(574,344,o),
(443,344,cs)
);
}
);
width = 1003;
}
);
unicode = 115;
userData = {
KernOnName = s;
};
}
{
glyphname = t;
kernLeft = KO_t;
kernRight = KO_t;
layers = (
{
layerId = m001;
shapes = (
{
closed = 1;
nodes = (
(837,804,o),
(723,823,o),
(600,844,c),
(683,964,o),
(782,1077,o),
(853,1147,c),
(833,1173,o),
(785,1198,o),
(762,1198,cs),
(701,1198,o),
(543,1059,o),
(395,879,c),
(244,904,l),
(232,880,o),
(220,828,o),
(244,820,cs),
(266,812,o),
(295,804,o),
(328,794,c),
(191,614,o),
(77,411,o),
(77,270,cs),
(77,74,o),
(200,-1,o),
(396,-1,cs),
(756,-1,o),
(983,310,o),
(1045,460,cs),
(1069,518,o),
(1045,539,o),
(1010,536,c),
(936,423,o),
(808,317,o),
(638,317,cs),
(492,317,o),
(436,378,o),
(436,467,cs),
(436,543,o),
(476,641,o),
(535,741,c),
(647,715,o),
(758,694,o),
(818,694,cs),
(843,694,o),
(866,743,o),
(880,801,c)
);
}
);
width = 827;
}
);
unicode = 116;
}
{
glyphname = u;
kernLeft = KO_o;
kernRight = KO_a;
layers = (
{
layerId = m001;
shapes = (
{
closed = 1;
nodes = (
(1286,423,o),
(1158,317,o),
(1053,317,cs),
(893,317,o),
(978,679,o),
(1151,826,c),
(1131,847,o),
(1068,893,o),
(1030,879,cs),
(883,823,o),
(659,559,o),
(608,350,c),
(558,320,o),
(503,317,o),
(457,317,cs),
(394,317,o),
(360,358,o),
(360,433,cs),
(360,569,o),
(488,739,o),
(608,824,c),
(586,851,o),
(550,884,o),
(522,884,cs),
(391,884,o),
(38,579,o),
(38,270,cs),
(38,102,o),
(144,0,o),
(312,0,cs),
(419,0,o),
(544,64,o),
(626,124,c),
(665,41,o),
(743,0,o),
(858,0,cs),
(1106,0,o),
(1333,310,o),
(1395,460,cs),
(1419,518,o),
(1395,539,o),
(1360,536,c)
);
}
);
width = 1177;
}
);
unicode = 117;
userData = {
KernOnName = u;
};
}
{
glyphname = v;
kernLeft = KO_v;
kernRight = KO_s;
layers = (
{
layerId = m001;
shapes = (
{
closed = 1;
nodes = (
(1349,428,o),
(1250,348,o),
(1177,348,cs),
(1138,348,o),
(1091,411,o),
(1054,477,c),
(1099,550,o),
(1126,621,o),
(1126,684,cs),
(1126,797,o),
(1095,918,o),
(1026,918,cs),
(948,918,o),
(862,832,o),
(839,788,cs),
(815,742,o),
(761,521,o),
(761,446,cs),
(761,420,o),
(764,395,o),
(770,371,c),
(684,299,o),
(599,250,o),
(548,250,cs),
(504,250,o),
(697,853,o),
(524,853,cs),
(398,853,o),
(234,624,o),
(106,416,cs),
(66,350,o),
(98,308,o),
(133,311,c),
(161,351,o),
(220,429,o),
(231,429,c),
(235,324,o),
(194,202,o),
(194,82,cs),
(194,9,o),
(234,-36,o),
(343,-36,cs),
(473,-36,o),
(677,81,o),
(844,233,c),
(907,164,o),
(1003,122,o),
(1112,122,cs),
(1237,122,o),
(1396,317,o),
(1455,460,cs),
(1479,518,o),
(1455,539,o),
(1420,536,c)
);
}
);
width = 1237;
}
);
unicode = 118;
userData = {
KernOnName = v;
};
}
{
glyphname = w;
kernLeft = KO_w;
kernRight = KO_s;
layers = (
{
layerId = m001;
shapes = (
{
closed = 1;
nodes = (
(1073,-23,o),
(1209,75,o),
(1318,208,c),
(1373,154,o),
(1451,122,o),
(1548,122,cs),
(1673,122,o),
(1832,317,o),
(1891,460,cs),
(1915,518,o),
(1891,539,o),
(1856,536,c),
(1785,428,o),
(1686,348,o),
(1613,348,cs),
(1571,348,o),
(1519,397,o),
(1478,469,c),
(1512,548,o),
(1532,627,o),
(1532,696,cs),
(1532,809,o),
(1521,907,o),
(1452,907,cs),
(1374,907,o),
(1302,815,o),
(1279,771,cs),
(1255,725,o),
(1231,514,o),
(1231,439,cs),
(1231,429,o),
(1231,420,o),
(1232,411,c),
(1177,356,o),
(1120,317,o),
(1078,317,cs),
(1027,317,o),
(984,416,o),
(968,543,c),
(1017,630,o),
(1047,710,o),
(1047,770,cs),
(1047,812,o),
(1010,881,o),
(968,881,cs),
(932,881,o),
(856,840,o),
(826,811,cs),
(790,775,o),
(748,565,o),
(736,455,c),
(642,369,o),
(546,317,o),
(492,317,cs),
(449,317,o),
(438,378,o),
(438,434,cs),
(438,538,o),
(476,733,o),
(579,861,c),
(526,895,o),
(490,894,o),
(444,860,cs),
(305,756,o),
(104,503,o),
(104,303,cs),
(104,162,o),
(174,-23,o),
(298,-23,cs),
(428,-23,o),
(599,97,o),
(745,250,c),
(769,109,o),
(829,-23,o),
(954,-23,cs)
);
}
);
width = 1673;
}
);
unicode = 119;
}
{
glyphname = x;
kernLeft = KO_x;
kernRight = KO_c;
layers = (
{
layerId = m001;
shapes = (
{
closed = 1;
nodes = (
(1295,404,o),
(1144,317,o),
(1035,317,cs),
(940,317,o),
(867,398,o),
(808,500,c),
(839,540,o),
(871,580,o),
(904,617,c),
(1097,620,o),
(1217,693,o),
(1226,724,cs),
(1241,776,o),
(1227,910,o),
(1158,923,cs),
(1156,923,o),
(1154,924,o),
(1152,924,cs),
(1149,924,l),
(1147,924,ls),
(1145,924,o),
(1143,924,o),
(1141,923,c),
(1021,915,o),
(877,774,o),
(742,630,c),
(682,764,o),
(637,889,o),
(593,889,cs),
(557,889,o),
(505,875,o),
(482,865,c),
(541,741,o),
(568,600,o),
(590,468,c),
(507,383,o),
(435,321,o),
(383,321,cs),
(319,321,o),
(280,485,o),
(288,627,c),
(241,622,o),
(204,607,o),
(174,570,cs),
(147,537,o),
(65,428,o),
(65,230,cs),
(65,119,o),
(122,1,o),
(277,1,cs),
(413,1,o),
(521,112,o),
(628,254,c),
(661,105,o),
(711,0,o),
(840,0,cs),
(1087,0,o),
(1328,241,o),
(1417,460,cs),
(1441,518,o),
(1417,539,o),
(1382,536,c)
);
}
);
width = 1199;
}
);
unicode = 120;
}
{
glyphname = y;
kernLeft = KO_y;
kernRight = KO_c;
layers = (
{
layerId = m001;
shapes = (
{
closed = 1;
nodes = (
(1021,886,o),
(955,895,o),
(892,871,c),
(890,831,o),
(886,790,o),
(879,748,c),
(811,526,o),
(596,322,o),
(476,322,cs),
(415,322,o),
(386,385,o),
(386,473,cs),
(386,608,o),
(522,796,o),
(600,855,c),
(589,870,o),
(567,885,o),
(543,885,cs),
(440,885,o),
(81,576,o),
(81,275,cs),
(81,107,o),
(197,26,o),
(326,26,cs),
(439,26,o),
(554,94,o),
(658,191,c),
(540,3,o),
(400,-133,o),
(298,-133,cs),
(186,-133,o),
(113,-89,o),
(22,-28,c),
(-68,-63,o),
(-123,-179,o),
(-123,-227,cs),
(-123,-384,o),
(50,-495,o),
(207,-495,cs),
(418,-495,o),
(616,-262,o),
(765,12,c),
(980,56,o),
(1175,214,o),
(1277,460,cs),
(1301,518,o),
(1277,539,o),
(1242,536,c),
(1159,410,o),
(998,289,o),
(880,258,c),
(973,486,o),
(1028,705,o),
(1024,820,cs)
);
}
);
width = 1059;
}
);
unicode = 121;
userData = {
KernOnName = y;
};
}
{
glyphname = z;
kernLeft = KO_z;
kernRight = KO_z;
layers = (
{
layerId = m001;
shapes = (
{
closed = 1;
nodes = (
(543,901,o),
(816,900,o),
(911,858,cs),
(927,851,o),
(935,805,o),
(935,779,cs),
(935,692,o),
(791,521,o),
(622,361,c),
(685,335,o),
(745,317,o),
(794,317,cs),
(899,317,o),
(1027,423,o),
(1101,536,c),
(1137,539,o),
(1160,518,o),
(1136,460,cs),
(1074,310,o),
(847,0,o),
(599,0,cs),
(496,0,o),
(405,54,o),
(329,115,c),
(234,45,o),
(154,0,o),
(118,0,cs),
(36,0,o),
(0,104,o),
(0,196,cs),
(0,360,o),
(119,545,o),
(233,545,cs),
(266,545,o),
(345,501,o),
(438,452,c),
(603,551,o),
(773,669,o),
(803,769,c),
(730,788,o),
(485,759,o),
(356,718,c),
(341,742,o),
(328,847,o),
(368,857,cs)
);
}
);
width = 918;
}
);
unicode = 122;
}
{
glyphname = braceleft;
kernLeft = KO_braceleft;
kernRight = KO_braceleft;
layers = (
{
layerId = m001;
shapes = (
{
closed = 1;
nodes = (
(1282,1557,o),
(1238,1592,o),
(1181,1592,cs),
(810,1592,o),
(795,908,o),
(501,883,cs),
(451,879,o),
(433,836,o),
(406,795,c),
(551,593,o),
(130,203,o),
(130,-131,cs),
(130,-272,o),
(197,-347,o),
(254,-347,cs),
(317,-347,o),
(417,-295,o),
(453,-262,c),
(312,114,o),
(724,574,o),
(591,765,c),
(924,837,o),
(866,1504,o),
(1208,1504,cs),
(1223,1504,o),
(1236,1502,o),
(1250,1499,c)
);
}
);
width = 911;
}
);
unicode = 123;
userData = {
KernOnSpecialSpacing = {
R = parenthesis;
};
};
}
{
glyphname = bar;
layers = (
{
layerId = m001;
shapes = (
{
closed = 1;
nodes = (
(218,-154,o),
(332,-208,o),
(373,-208,cs),
(504,-208,o),
(1108,1385,o),
(1108,1567,cs),
(1108,1585,o),
(1050,1606,o),
(1026,1613,c),
(982,1410,o),
(361,24,o),
(194,-121,c)
);
}
);
width = 1016;
}
);
unicode = 124;
userData = {
KernOnSpecialSpacing = {
L = NoKerning;
R = NoKerning;
};
};
}
{
glyphname = braceright;
kernLeft = KO_braceright;
kernRight = KO_braceright;
layers = (
{
layerId = m001;
shapes = (
{
closed = 1;
nodes = (
(83,-218,o),
(119,-363,o),
(239,-363,cs),
(714,-363,o),
(636,613,o),
(961,732,c),
(985,742,o),
(1031,788,o),
(1006,837,c),
(893,902,o),
(1121,1240,o),
(1121,1436,cs),
(1121,1579,o),
(1064,1640,o),
(995,1589,c),
(1011,1554,o),
(1027,1515,o),
(1027,1476,cs),
(1027,1256,o),
(735,965,o),
(854,826,c),
(451,692,o),
(472,-99,o),
(80,-176,c)
);
}
);
width = 1171;
}
);
unicode = 125;
userData = {
KernOnSpecialSpacing = {
L = parenthesis;
};
};
}
{
glyphname = asciitilde;
kernLeft = KO_asciitilde;
kernRight = KO_asciitilde;
layers = (
{
layerId = m001;
shapes = (
{
closed = 1;
nodes = (
(251,452,o),
(373,575,o),
(470,575,cs),
(587,575,o),
(612,390,o),
(789,390,cs),
(938,390,o),
(1089,558,o),
(1089,660,cs),
(1089,687,o),
(1010,729,o),
(1010,729,c),
(1010,729,o),
(942,651,o),
(872,651,cs),
(749,651,o),
(691,793,o),
(516,793,cs),
(372,793,o),
(234,672,o),
(176,546,cs),
(165,522,o),
(251,452,o),
(251,452,c)
);
}
);
width = 1200;
}
);
unicode = 126;
userData = {
KernOnSpecialSpacing = {
L = math;
R = math;
};
};
}
{
glyphname = cent;
layers = (
{
layerId = m001;
shapes = (
{
closed = 1;
nodes = (
(967,472,o),
(906,459,o),
(845,459,cs),
(834,459,o),
(823,459,o),
(813,461,c),
(897,654,o),
(977,853,o),
(1036,1018,c),
(1106,1016,o),
(1158,992,o),
(1189,963,c),
(1211,979,o),
(1228,1001,o),
(1228,1025,cs),
(1228,1076,o),
(1164,1121,o),
(1077,1133,c),
(1114,1243,o),
(1136,1326,o),
(1136,1362,cs),
(1136,1379,o),
(1078,1400,o),
(1054,1407,c),
(1044,1360,o),
(1007,1260,o),
(954,1131,c),
(664,1087,o),
(289,807,o),
(289,549,cs),
(289,372,o),
(379,252,o),
(525,207,c),
(428,21,o),
(342,-124,o),
(291,-168,c),
(315,-201,o),
(372,-255,o),
(415,-255,cs),
(462,-255,o),
(571,-63,o),
(690,188,c),
(854,204,o),
(1081,371,o),
(1081,463,cs),
(1081,487,o),
(1046,509,o),
(1046,509,c)
);
},
{
closed = 1;
nodes = (
(654,558,o),
(636,601,o),
(636,651,cs),
(636,780,o),
(755,924,o),
(893,986,c),
(832,843,o),
(759,682,o),
(684,525,c)
);
}
);
width = 1368;
}
);
unicode = 162;
userData = {
KernOnSpecialSpacing = {
L = symbols;
R = symbols;
};
};
}
{
glyphname = sterling;
layers = (
{
layerId = m001;
shapes = (
{
closed = 1;
nodes = (
(308,726,o),
(402,704,o),
(492,673,c),
(428,567,o),
(353,470,o),
(254,402,c),
(225,406,o),
(195,408,o),
(164,408,cs),
(56,408,o),
(-1,334,o),
(-1,237,cs),
(-1,161,o),
(62,116,o),
(131,117,cs),
(195,117,o),
(236,130,o),
(284,142,c),
(547,120,o),
(703,-54,o),
(988,-54,cs),
(1195,-54,o),
(1322,106,o),
(1322,290,cs),
(1322,321,o),
(1292,345,o),
(1252,355,c),
(1222,294,o),
(1135,254,o),
(1041,254,cs),
(920,254,o),
(691,290,o),
(554,332,c),
(638,379,o),
(693,470,o),
(736,576,c),
(837,537,o),
(944,505,o),
(1068,505,cs),
(1151,505,o),
(1187,593,o),
(1180,680,c),
(1084,661,o),
(936,689,o),
(787,727,c),
(867,994,o),
(917,1287,o),
(1133,1287,cs),
(1232,1287,o),
(1295,1229,o),
(1295,1133,cs),
(1295,1047,o),
(1219,965,o),
(1141,940,c),
(1157,891,o),
(1199,832,o),
(1255,832,cs),
(1371,832,o),
(1440,963,o),
(1440,1111,cs),
(1440,1288,o),
(1320,1397,o),
(1159,1397,cs),
(826,1397,o),
(710,1082,o),
(556,790,c),
(461,816,o),
(379,836,o),
(330,836,cs),
(232,836,o),
(214,804,o),
(203,720,c)
);
}
);
width = 1460;
}
);
unicode = 163;
userData = {
KernOnSpecialSpacing = {
L = symbols;
R = symbols;
};
};
}
{
glyphname = currency;
layers = (
{
layerId = m001;
shapes = (
{
closed = 1;
nodes = (
(736,887,o),
(646,851,o),
(573,797,c),
(494,886,o),
(446,967,o),
(429,998,c),
(401,982,o),
(368,951,o),
(368,928,cs),
(368,877,o),
(405,783,o),
(470,694,c),
(427,635,o),
(401,569,o),
(401,507,cs),
(401,477,o),
(406,451,o),
(414,427,c),
(334,367,o),
(234,296,o),
(189,263,c),
(197,234,o),
(248,164,o),
(295,164,cs),
(315,164,o),
(403,246,o),
(491,332,c),
(529,308,o),
(575,296,o),
(623,296,cs),
(698,296,o),
(774,322,o),
(839,364,c),
(889,299,o),
(966,190,o),
(1016,190,cs),
(1042,190,o),
(1102,257,o),
(1130,303,c),
(1084,340,o),
(1008,392,o),
(943,458,c),
(999,526,o),
(1035,610,o),
(1035,695,cs),
(1035,716,o),
(1032,737,o),
(1027,756,c),
(1106,810,o),
(1200,888,o),
(1200,934,cs),
(1200,950,o),
(1181,973,o),
(1155,996,c),
(1125,969,o),
(1037,905,o),
(960,851,c),
(927,874,o),
(884,887,o),
(830,887,cs)
);
},
{
closed = 1;
nodes = (
(858,759,o),
(889,731,o),
(889,680,cs),
(889,610,o),
(802,522,o),
(719,522,cs),
(661,522,o),
(627,551,o),
(627,595,cs),
(627,679,o),
(714,759,o),
(806,759,cs)
);
}
);
width = 1373;
}
);
unicode = 164;
}
{
glyphname = yen;
layers = (
{
layerId = m001;
shapes = (
{
closed = 1;
nodes = (
(1084,592,o),
(966,584,o),
(841,580,c),
(862,613,o),
(885,647,o),
(909,680,c),
(1030,692,o),
(1139,711,o),
(1198,737,cs),
(1239,755,o),
(1261,792,o),
(1248,845,c),
(1189,836,o),
(1109,829,o),
(1020,825,c),
(1186,1025,o),
(1394,1226,o),
(1631,1413,c),
(1620,1452,o),
(1553,1462,o),
(1520,1444,cs),
(1340,1347,o),
(1073,1143,o),
(835,910,c),
(853,1172,o),
(804,1378,o),
(575,1378,cs),
(391,1378,o),
(183,1183,o),
(320,1137,c),
(364,1190,o),
(447,1254,o),
(526,1254,cs),
(632,1254,o),
(655,1056,o),
(609,822,c),
(504,826,o),
(418,834,o),
(375,847,c),
(340,723,o),
(369,663,o),
(543,663,cs),
(567,663,l),
(559,636,o),
(549,609,o),
(539,583,c),
(539,582,o),
(538,581,o),
(538,581,c),
(428,585,o),
(336,593,o),
(291,606,c),
(259,492,o),
(281,421,o),
(420,411,c),
(347,291,o),
(303,178,o),
(303,82,cs),
(303,-45,o),
(483,-78,o),
(623,-29,c),
(623,109,o),
(667,261,o),
(748,419,c),
(883,429,o),
(1014,449,o),
(1114,484,cs),
(1156,499,o),
(1177,551,o),
(1164,604,c)
);
}
);
width = 1405;
}
);
unicode = 165;
userData = {
KernOnSpecialSpacing = {
L = symbols;
R = symbols;
};
};
}
{
glyphname = brokenbar;
layers = (
{
layerId = m001;
shapes = (
{
closed = 1;
nodes = (
(739,901,o),
(814,852,o),
(860,852,cs),
(897,852,o),
(1108,1475,o),
(1108,1565,cs),
(1108,1586,o),
(1055,1606,o),
(1026,1613,c),
(1010,1537,o),
(862,1151,o),
(739,901,c)
);
},
{
closed = 1;
nodes = (
(443,272,o),
(265,-57,o),
(200,-123,c),
(225,-148,o),
(332,-208,o),
(373,-208,cs),
(448,-208,o),
(744,471,o),
(744,549,cs),
(744,580,o),
(611,627,o),
(611,627,c)
);
}
);
width = 1016;
}
);
unicode = 166;
}
{
glyphname = section;
layers = (
{
layerId = m001;
shapes = (
{
closed = 1;
nodes = (
(1250,794,o),
(906,974,o),
(906,1093,cs),
(906,1216,o),
(1026,1260,o),
(1132,1260,cs),
(1236,1260,o),
(1337,1198,o),
(1363,1130,c),
(1413,1149,o),
(1490,1188,o),
(1490,1248,cs),
(1490,1327,o),
(1352,1376,o),
(1220,1376,cs),
(1001,1376,o),
(764,1257,o),
(764,1087,cs),
(764,1076,l),
(667,1038,o),
(583,949,o),
(583,856,cs),
(583,718,o),
(788,576,o),
(788,441,cs),
(788,368,o),
(704,313,o),
(614,313,cs),
(442,313,o),
(288,424,o),
(249,553,c),
(227,547,o),
(182,526,o),
(179,508,cs),
(174,478,o),
(172,449,o),
(172,421,cs),
(172,186,o),
(338,4,o),
(589,4,cs),
(838,4,o),
(1017,151,o),
(1050,316,c),
(1181,365,o),
(1250,470,o),
(1250,588,cs)
);
},
{
closed = 1;
nodes = (
(1032,628,o),
(1010,608,o),
(980,593,c),
(884,727,o),
(729,808,o),
(729,893,cs),
(729,927,o),
(755,964,o),
(797,988,c),
(869,870,o),
(1032,748,o),
(1032,660,cs)
);
}
);
width = 1558;
}
);
unicode = 167;
userData = {
KernOnSpecialSpacing = {
R = symbols;
};
};
}
{
glyphname = dieresis;
layers = (
{
layerId = m001;
shapes = (
{
closed = 1;
nodes = (
(964,1137,o),
(1027,1074,o),
(1091,1074,cs),
(1167,1074,o),
(1241,1201,o),
(1241,1238,cs),
(1241,1279,o),
(1177,1354,o),
(1123,1354,cs),
(1086,1354,o),
(964,1256,o),
(964,1191,cs)
);
},
{
closed = 1;
nodes = (
(588,1115,o),
(648,1074,o),
(701,1074,cs),
(777,1074,o),
(860,1177,o),
(860,1243,cs),
(860,1285,o),
(770,1354,o),
(728,1354,cs),
(697,1354,o),
(588,1230,o),
(588,1165,cs)
);
}
);
width = 1200;
}
);
unicode = 168;
}
{
glyphname = copyright;
kernRight = KO_copyright;
layers = (
{
layerId = m001;
shapes = (
{
closed = 1;
nodes = (
(976,353,o),
(850,316,o),
(765,316,cs),
(720,316,o),
(683,357,o),
(683,410,cs),
(683,532,o),
(795,655,o),
(933,655,cs),
(974,655,o),
(1027,645,o),
(1070,611,c),
(1153,681,o),
(1036,755,o),
(934,755,cs),
(693,755,o),
(407,541,o),
(407,312,cs),
(407,181,o),
(510,100,o),
(642,100,cs),
(779,100,o),
(1055,280,o),
(1055,369,cs),
(1055,392,o),
(1026,409,o),
(1026,409,c)
);
},
{
closed = 1;
nodes = (
(401,-38,o),
(205,62,o),
(205,288,cs),
(205,627,o),
(691,931,o),
(1027,931,cs),
(1239,931,o),
(1357,818,o),
(1357,645,cs),
(1357,293,o),
(983,-38,o),
(630,-38,cs)
);
},
{
closed = 1;
nodes = (
(1486,879,o),
(1318,1009,o),
(1045,1009,cs),
(565,1009,o),
(31,606,o),
(31,236,cs),
(31,-43,o),
(247,-192,o),
(518,-192,cs),
(1051,-192,o),
(1486,238,o),
(1486,636,cs)
);
}
);
width = 1557;
}
);
unicode = 169;
userData = {
KernOnSpecialSpacing = {
R = symbols;
};
};
}
{
glyphname = ordfeminine;
layers = (
{
layerId = m001;
shapes = (
{
closed = 1;
nodes = (
(975,1194,o),
(926,1162,o),
(881,1162,cs),
(785,1162,o),
(919,1414,o),
(933,1448,c),
(933,1448,o),
(845,1465,o),
(821,1438,cs),
(806,1421,l),
(794,1434,o),
(776,1444,o),
(747,1444,cs),
(517,1444,o),
(253,1328,o),
(253,1135,cs),
(253,1055,o),
(316,990,o),
(417,990,cs),
(511,990,o),
(579,1042,o),
(618,1080,c),
(615,1023,o),
(678,990,o),
(745,990,cs),
(861,990,o),
(994,1114,o),
(1035,1177,cs),
(1053,1204,o),
(1028,1220,o),
(1007,1219,c)
);
},
{
closed = 1;
nodes = (
(474,1164,o),
(463,1185,o),
(463,1217,cs),
(463,1284,o),
(579,1362,o),
(762,1368,c),
(689,1281,o),
(588,1164,o),
(503,1164,cs)
);
}
);
width = 846;
}
);
unicode = 170;
userData = {
KernOnSpecialSpacing = {
L = superiors;
R = superiors;
};
};
}
{
glyphname = guillemotleft;
kernLeft = KO_guillemotleft;
kernRight = KO_guillemotleft;
layers = (
{
layerId = m001;
shapes = (
{
closed = 1;
nodes = (
(866,212,o),
(692,387,o),
(688,472,cs),
(686,519,o),
(1025,769,o),
(1075,785,c),
(1070,810,o),
(1030,852,o),
(1002,852,cs),
(920,852,o),
(450,552,o),
(450,440,cs),
(450,311,o),
(653,66,o),
(741,66,cs),
(772,66,o),
(885,164,o),
(890,196,c)
);
},
{
closed = 1;
nodes = (
(1237,299,o),
(1098,412,o),
(1096,468,cs),
(1094,501,o),
(1374,702,o),
(1443,742,c),
(1439,767,o),
(1404,809,o),
(1376,809,cs),
(1322,809,o),
(868,539,o),
(868,451,cs),
(868,373,o),
(1038,157,o),
(1108,157,cs),
(1139,157,o),
(1235,233,o),
(1261,276,c)
);
}
);
width = 1483;
}
);
unicode = 171;
userData = {
KernOnSpecialSpacing = {
L = quotes;
R = quotes;
};
};
}
{
glyphname = logicalnot;
kernLeft = KO_logicalnot;
kernRight = KO_logicalnot;
layers = (
{
layerId = m001;
shapes = (
{
closed = 1;
nodes = (
(838,81,o),
(919,78,o),
(952,115,cs),
(1021,193,o),
(1166,505,o),
(1166,654,c),
(995,648,o),
(464,626,o),
(306,669,c),
(271,545,o),
(300,463,o),
(474,463,cs),
(539,463,o),
(849,469,o),
(930,477,c),
(914,394,o),
(834,188,o),
(795,94,c)
);
}
);
width = 1436;
}
);
unicode = 172;
}
{
glyphname = registered;
kernLeft = KO_at;
layers = (
{
layerId = m001;
shapes = (
{
closed = 1;
nodes = (
(393,-38,o),
(197,62,o),
(197,288,cs),
(197,627,o),
(683,931,o),
(1019,931,cs),
(1231,931,o),
(1349,818,o),
(1349,645,cs),
(1349,293,o),
(975,-38,o),
(622,-38,cs)
);
},
{
closed = 1;
nodes = (
(1478,879,o),
(1310,1009,o),
(1037,1009,cs),
(557,1009,o),
(23,606,o),
(23,236,cs),
(23,-43,o),
(239,-192,o),
(510,-192,cs),
(1043,-192,o),
(1478,238,o),
(1478,636,cs)
);
},
{
closed = 1;
nodes = (
(1073,384,o),
(1001,332,o),
(946,332,cs),
(896,332,o),
(861,374,o),
(841,434,c),
(978,507,o),
(1062,596,o),
(1062,688,cs),
(1062,759,o),
(997,812,o),
(892,812,cs),
(663,812,o),
(348,544,o),
(348,294,cs),
(348,166,o),
(453,122,o),
(529,122,cs),
(552,122,o),
(575,130,o),
(575,149,cs),
(580,364,o),
(706,717,o),
(853,717,cs),
(899,717,o),
(920,690,o),
(920,651,cs),
(920,554,o),
(773,483,o),
(654,428,c),
(641,277,o),
(669,108,o),
(783,108,cs),
(930,108,o),
(1130,311,o),
(1130,385,cs),
(1130,414,o),
(1103,423,o),
(1103,423,c)
);
}
);
width = 1557;
}
);
unicode = 174;
userData = {
KernOnSpecialSpacing = {
L = superiors;
};
};
}
{
glyphname = macron;
layers = (
{
layerId = m001;
shapes = (
{
closed = 1;
nodes = (
(891,1318,o),
(511,1328,o),
(383,1360,c),
(345,1252,o),
(372,1179,o),
(546,1179,cs),
(770,1179,o),
(993,1202,o),
(1079,1242,cs),
(1121,1262,o),
(1126,1331,o),
(1112,1352,c)
);
}
);
width = 1200;
}
);
unicode = 175;
}
{
glyphname = degree;
kernRight = KO_degree;
layers = (
{
layerId = m001;
shapes = (
{
closed = 1;
nodes = (
(663,1320,o),
(693,1301,o),
(693,1255,cs),
(693,1194,o),
(621,1118,o),
(549,1118,cs),
(500,1118,o),
(469,1145,o),
(469,1182,cs),
(469,1254,o),
(540,1320,o),
(624,1320,cs)
);
},
{
closed = 1;
nodes = (
(477,1441,o),
(308,1271,o),
(308,1129,cs),
(308,1016,o),
(397,954,o),
(495,954,cs),
(664,954,o),
(832,1112,o),
(832,1285,cs),
(832,1369,o),
(777,1441,o),
(664,1441,cs)
);
}
);
width = 796;
}
);
unicode = 176;
userData = {
KernOnSpecialSpacing = {
L = superiors;
R = superiors;
};
};
}
{
glyphname = plusminus;
kernRight = KO_plusminus;
layers = (
{
layerId = m001;
shapes = (
{
closed = 1;
nodes = (
(1158,814,o),
(1037,806,o),
(910,803,c),
(932,880,o),
(946,951,o),
(946,999,cs),
(946,1085,o),
(896,1098,o),
(786,1094,c),
(786,1052,o),
(762,934,o),
(729,801,c),
(570,803,o),
(426,812,o),
(366,829,c),
(331,705,o),
(360,623,o),
(534,623,cs),
(580,623,o),
(631,623,o),
(683,625,c),
(648,498,o),
(612,381,o),
(588,324,c),
(607,310,o),
(694,318,o),
(726,356,cs),
(757,392,o),
(810,508,o),
(856,635,c),
(995,646,o),
(1122,664,o),
(1189,693,cs),
(1230,711,o),
(1252,774,o),
(1239,827,c)
);
},
{
closed = 1;
nodes = (
(841,151,o),
(319,150,o),
(189,187,c),
(154,63,o),
(183,-19,o),
(357,-19,cs),
(581,-19,o),
(894,0,o),
(1012,51,cs),
(1053,69,o),
(1075,132,o),
(1062,185,c)
);
}
);
width = 1436;
}
);
unicode = 177;
userData = {
KernOnSpecialSpacing = {
L = math;
R = math;
};
};
}
{
glyphname = twosuperior;
kernLeft = KO_twosuperior;
kernRight = KO_twosuperior;
layers = (
{
layerId = m001;
shapes = (
{
closed = 1;
nodes = (
(1087,850,o),
(1112,949,o),
(1025,978,cs),
(882,1026,o),
(633,1011,o),
(633,1011,c),
(633,1011,o),
(1215,1227,o),
(1215,1494,cs),
(1215,1608,o),
(1128,1670,o),
(967,1670,cs),
(784,1670,o),
(489,1553,o),
(489,1416,cs),
(489,1363,o),
(568,1329,o),
(629,1329,cs),
(658,1329,o),
(694,1357,o),
(706,1375,c),
(677,1390,o),
(662,1413,o),
(662,1436,cs),
(662,1496,o),
(785,1555,o),
(898,1555,cs),
(953,1555,o),
(1021,1537,o),
(1021,1473,cs),
(1021,1260,o),
(412,1084,o),
(291,951,cs),
(242,897,o),
(270,709,o),
(378,743,cs),
(595,811,o),
(894,831,o),
(1035,784,c)
);
}
);
width = 1060;
}
);
unicode = 178;
userData = {
KernOnSpecialSpacing = {
L = superiors;
R = superiors;
};
};
}
{
glyphname = threesuperior;
kernLeft = KO_threesuperior;
kernRight = KO_threesuperior;
layers = (
{
layerId = m001;
shapes = (
{
closed = 1;
nodes = (
(719,1128,o),
(779,1145,o),
(842,1173,c),
(896,1007,o),
(584,890,o),
(269,907,c),
(250,815,o),
(292,678,o),
(410,678,cs),
(980,678,o),
(1193,1075,o),
(984,1254,c),
(1087,1326,o),
(1172,1419,o),
(1172,1509,cs),
(1172,1608,o),
(1084,1671,o),
(933,1671,cs),
(783,1671,o),
(459,1555,o),
(459,1445,cs),
(459,1405,o),
(505,1359,o),
(533,1359,cs),
(547,1359,o),
(606,1384,o),
(614,1394,c),
(597,1459,o),
(753,1562,o),
(888,1562,cs),
(952,1562,o),
(1004,1535,o),
(1004,1490,cs),
(1004,1392,o),
(772,1286,o),
(610,1265,c),
(610,1239,o),
(635,1128,o),
(679,1128,cs)
);
}
);
width = 1021;
}
);
unicode = 179;
userData = {
KernOnSpecialSpacing = {
L = superiors;
R = superiors;
};
};
}
{
glyphname = acute;
layers = (
{
layerId = m001;
shapes = (
{
closed = 1;
nodes = (
(457,1081,o),
(511,1040,o),
(528,1040,cs),
(610,1040,o),
(955,1259,o),
(955,1357,cs),
(955,1389,o),
(847,1460,o),
(810,1468,c),
(777,1373,o),
(512,1146,o),
(448,1102,c)
);
}
);
width = 1200;
}
);
unicode = 180;
}
{
glyphname = mu;
kernRight = KO_mu;
layers = (
{
layerId = m001;
shapes = (
{
closed = 1;
nodes = (
(302,-234,o),
(309,-104,o),
(320,7,c),
(343,2,o),
(366,0,o),
(392,0,cs),
(499,0,o),
(624,64,o),
(706,124,c),
(745,41,o),
(823,0,o),
(938,0,cs),
(1186,0,o),
(1413,310,o),
(1475,460,cs),
(1499,518,o),
(1475,539,o),
(1440,536,c),
(1366,423,o),
(1238,317,o),
(1133,317,cs),
(973,317,o),
(1058,679,o),
(1231,826,c),
(1211,847,o),
(1148,893,o),
(1110,879,cs),
(963,823,o),
(739,559,o),
(688,350,c),
(638,320,o),
(583,317,o),
(537,317,cs),
(474,317,o),
(440,358,o),
(440,433,cs),
(440,569,o),
(568,739,o),
(688,824,c),
(666,851,o),
(639,884,o),
(611,884,cs),
(390,884,o),
(5,412,o),
(5,-213,cs),
(5,-400,o),
(213,-381,o),
(302,-371,c)
);
}
);
width = 1494;
}
);
unicode = 181;
}
{
glyphname = paragraph;
layers = (
{
layerId = m001;
shapes = (
{
closed = 1;
nodes = (
(858,-232,o),
(950,-277,o),
(991,-277,cs),
(1094,-277,o),
(1416,757,o),
(1547,1283,c),
(1661,1249,o),
(1778,1222,o),
(1900,1222,cs),
(1979,1222,o),
(1984,1357,o),
(1984,1357,c),
(1839,1347,o),
(1703,1367,o),
(1574,1396,c),
(1593,1479,o),
(1604,1540,o),
(1604,1567,cs),
(1604,1585,o),
(1546,1606,o),
(1522,1613,c),
(1515,1580,o),
(1496,1512,o),
(1469,1423,c),
(1418,1436,o),
(1368,1451,o),
(1320,1464,c),
(1332,1512,o),
(1338,1547,o),
(1338,1567,cs),
(1338,1585,o),
(1280,1606,o),
(1256,1613,c),
(1250,1588,o),
(1237,1545,o),
(1218,1491,c),
(1132,1513,o),
(1050,1528,o),
(972,1528,cs),
(562,1528,o),
(295,1102,o),
(295,797,cs),
(295,618,o),
(384,475,o),
(584,475,cs),
(682,475,o),
(769,514,o),
(849,583,c),
(698,246,o),
(547,-57,o),
(474,-121,c),
(498,-154,o),
(612,-208,o),
(653,-208,cs),
(761,-208,o),
(1161,887,o),
(1294,1365,c),
(1341,1350,o),
(1388,1334,o),
(1436,1318,c),
(1281,823,o),
(964,-86,o),
(834,-199,c)
);
},
{
closed = 1;
nodes = (
(573,851,o),
(536,932,o),
(536,1030,cs),
(536,1198,o),
(683,1423,o),
(990,1423,cs),
(1053,1423,o),
(1118,1412,o),
(1184,1396,c),
(1169,1355,l),
(1026,1082,o),
(844,851,o),
(692,851,cs)
);
}
);
width = 1740;
}
);
unicode = 182;
userData = {
KernOnSpecialSpacing = {
L = NoKerning;
R = NoKerning;
};
};
}
{
glyphname = periodcentered;
layers = (
{
layerId = m001;
shapes = (
{
closed = 1;
nodes = (
(375,428,o),
(454,374,o),
(534,374,cs),
(629,374,o),
(757,484,o),
(757,567,cs),
(757,641,o),
(646,705,o),
(598,705,cs),
(526,705,o),
(375,598,o),
(375,508,cs)
);
}
);
width = 857;
}
);
unicode = 183;
userData = {
KernOnSpecialSpacing = {
L = NoKerning;
R = NoKerning;
};
};
}
{
glyphname = cedilla;
layers = (
{
layerId = m001;
shapes = (
{
closed = 1;
nodes = (
(662,30,o),
(511,-54,o),
(511,-115,cs),
(511,-143,o),
(564,-178,o),
(564,-240,cs),
(564,-301,o),
(459,-304,o),
(399,-262,c),
(375,-270,o),
(327,-333,o),
(334,-358,cs),
(355,-435,o),
(448,-491,o),
(533,-491,cs),
(648,-491,o),
(803,-431,o),
(803,-298,cs),
(803,-175,o),
(681,-127,o),
(681,-100,cs),
(681,-72,o),
(822,20,o),
(871,44,c),
(727,62,l)
);
}
);
width = 1200;
}
);
unicode = 184;
}
{
glyphname = onesuperior;
kernLeft = KO_onesuperior;
kernRight = KO_onesuperior;
layers = (
{
layerId = m001;
shapes = (
{
closed = 1;
nodes = (
(605,1142,o),
(985,1475,o),
(985,1589,cs),
(985,1618,o),
(940,1664,o),
(910,1673,c),
(753,1572,o),
(405,1466,o),
(339,1445,c),
(348,1394,o),
(379,1332,o),
(415,1332,cs),
(456,1332,o),
(700,1438,o),
(795,1505,c),
(734,1394,o),
(304,1073,o),
(304,896,cs),
(304,761,o),
(458,728,o),
(597,741,c)
);
}
);
width = 784;
}
);
unicode = 185;
userData = {
KernOnSpecialSpacing = {
L = superiors;
R = superiors;
};
};
}
{
glyphname = ordmasculine;
kernLeft = KO_ordmasculine;
layers = (
{
layerId = m001;
shapes = (
{
closed = 1;
nodes = (
(605,1463,o),
(591,1440,o),
(585,1417,c),
(428,1377,o),
(283,1254,o),
(283,1135,cs),
(283,1055,o),
(343,987,o),
(474,987,cs),
(713,987,o),
(901,1126,o),
(901,1304,cs),
(901,1401,o),
(766,1489,o),
(620,1466,cs)
);
},
{
closed = 1;
nodes = (
(703,1250,o),
(629,1165,o),
(538,1165,cs),
(513,1165,o),
(496,1184,o),
(496,1216,cs),
(496,1286,o),
(557,1341,o),
(658,1364,c),
(690,1353,o),
(703,1333,o),
(703,1307,cs)
);
}
);
width = 764;
}
);
unicode = 186;
userData = {
KernOnSpecialSpacing = {
L = superiors;
R = superiors;
};
};
}
{
glyphname = guillemotright;
kernLeft = KO_guillemotright;
kernRight = KO_guillemotright;
layers = (
{
layerId = m001;
shapes = (
{
closed = 1;
nodes = (
(719,160,o),
(829,68,o),
(889,68,cs),
(957,68,o),
(1301,447,o),
(1301,538,cs),
(1301,625,o),
(1020,823,o),
(956,823,cs),
(928,823,o),
(896,792,o),
(877,767,c),
(911,736,o),
(1081,605,o),
(1081,556,cs),
(1081,517,o),
(781,245,o),
(705,200,c)
);
},
{
closed = 1;
nodes = (
(318,261,o),
(430,160,o),
(462,160,cs),
(509,160,o),
(891,487,o),
(891,558,cs),
(891,624,o),
(655,808,o),
(611,808,cs),
(583,808,o),
(542,777,o),
(524,752,c),
(572,712,o),
(684,608,o),
(684,576,cs),
(684,544,o),
(371,329,o),
(314,292,c)
);
}
);
width = 1483;
}
);
unicode = 187;
userData = {
KernOnSpecialSpacing = {
L = quotes;
R = quotes;
};
};
}
{
glyphname = onequarter;
layers = (
{
layerId = m001;
shapes = (
{
closed = 1;
nodes = (
(1283,-386,o),
(1384,-425,o),
(1550,-413,c),
(1565,-289,o),
(1607,-167,o),
(1657,-55,c),
(1676,-55,o),
(1694,-54,o),
(1713,-54,cs),
(1796,-54,o),
(1888,-60,o),
(1916,-68,c),
(1937,-42,o),
(1951,-12,o),
(1951,3,cs),
(1951,55,o),
(1837,79,o),
(1725,81,c),
(1820,257,o),
(1916,395,o),
(1916,458,cs),
(1916,487,o),
(1847,534,o),
(1819,539,c),
(1586,442,o),
(1165,204,o),
(964,54,c),
(976,-15,o),
(1069,-127,o),
(1127,-127,cs),
(1159,-127,o),
(1245,-105,o),
(1366,-85,c),
(1316,-158,o),
(1283,-228,o),
(1283,-285,cs)
);
},
{
closed = 1;
nodes = (
(1302,137,o),
(1583,332,o),
(1745,395,c),
(1712,324,o),
(1595,201,o),
(1487,72,c),
(1341,63,o),
(1205,49,o),
(1178,47,c)
);
},
{
pos = (109,0);
ref = onesuperior;
},
{
pos = (180,0);
ref = fraction;
}
);
width = 2066;
}
);
unicode = 188;
userData = {
KernOnSpecialSpacing = {
L = NoKerning;
R = NoKerning;
};
};
}
{
glyphname = threequarters;
layers = (
{
layerId = m001;
shapes = (
{
closed = 1;
nodes = (
(1383,-386,o),
(1484,-425,o),
(1650,-413,c),
(1665,-289,o),
(1707,-167,o),
(1757,-55,c),
(1776,-55,o),
(1794,-54,o),
(1813,-54,cs),
(1896,-54,o),
(1988,-60,o),
(2016,-68,c),
(2037,-42,o),
(2051,-12,o),
(2051,3,cs),
(2051,55,o),
(1937,79,o),
(1825,81,c),
(1920,257,o),
(2016,395,o),
(2016,458,cs),
(2016,487,o),
(1947,534,o),
(1919,539,c),
(1686,442,o),
(1265,204,o),
(1064,54,c),
(1076,-15,o),
(1169,-127,o),
(1227,-127,cs),
(1259,-127,o),
(1345,-105,o),
(1466,-85,c),
(1416,-158,o),
(1383,-228,o),
(1383,-285,cs)
);
},
{
closed = 1;
nodes = (
(1402,137,o),
(1683,332,o),
(1845,395,c),
(1812,324,o),
(1695,201,o),
(1587,72,c),
(1441,63,o),
(1305,49,o),
(1278,47,c)
);
},
{
pos = (280,0);
ref = fraction;
},
{
pos = (-21,0);
ref = threesuperior;
}
);
width = 2166;
}
);
unicode = 190;
userData = {
KernOnSpecialSpacing = {
L = NoKerning;
R = NoKerning;
};
};
}
{
glyphname = questiondown;
kernRight = KO_questiondown;
layers = (
{
layerId = m001;
shapes = (
{
closed = 1;
nodes = (
(1070,937,o),
(994,983,o),
(914,983,cs),
(808,983,o),
(602,893,o),
(602,787,cs),
(602,699,o),
(667,639,o),
(773,639,cs),
(934,639,o),
(1070,750,o),
(1070,857,cs)
);
},
{
closed = 1;
nodes = (
(577,449,o),
(651,471,o),
(704,471,cs),
(758,471,o),
(792,442,o),
(792,388,cs),
(792,117,o),
(-110,28,o),
(-110,-449,cs),
(-110,-591,o),
(27,-701,o),
(262,-701,cs),
(901,-701,o),
(1042,-90,o),
(733,-90,cs),
(670,-90,o),
(583,-105,o),
(624,-176,c),
(669,-165,o),
(704,-160,o),
(704,-208,cs),
(704,-265,o),
(561,-383,o),
(393,-383,cs),
(328,-383,o),
(275,-344,o),
(275,-269,cs),
(275,-83,o),
(943,116,o),
(943,381,cs),
(943,480,o),
(861,550,o),
(736,550,cs),
(662,550,o),
(564,517,o),
(513,464,cs),
(498,448,o),
(512,420,o),
(531,416,c)
);
}
);
width = 1130;
}
);
unicode = 191;
userData = {
KernOnSpecialSpacing = {
R = "spaced-off";
};
};
}
{
glyphname = AE;
kernLeft = KO_A;
kernRight = KO_AE;
layers = (
{
layerId = m001;
shapes = (
{
closed = 1;
nodes = (
(228,814,o),
(447,925,o),
(721,925,cs),
(764,925,o),
(805,924,o),
(843,921,c),
(583,677,o),
(396,401,o),
(396,164,cs),
(396,23,o),
(477,-39,o),
(534,-39,cs),
(600,-39,o),
(765,42,o),
(802,84,c),
(757,329,o),
(895,623,o),
(1105,876,c),
(1193,850,o),
(1282,813,o),
(1388,762,c),
(1430,804,o),
(1430,858,o),
(1363,899,cs),
(1335,916,o),
(1274,945,o),
(1193,975,c),
(1449,1245,o),
(1779,1446,o),
(2025,1446,cs),
(2054,1446,o),
(2067,1438,o),
(2067,1423,cs),
(2067,1276,o),
(1425,851,o),
(1425,420,cs),
(1425,180,o),
(1617,-27,o),
(1964,-27,cs),
(2264,-27,o),
(2548,255,o),
(2548,372,cs),
(2548,394,o),
(2508,429,o),
(2499,435,c),
(2430,385,o),
(2299,299,o),
(2121,299,cs),
(2045,299,o),
(1879,332,o),
(1879,505,cs),
(1879,570,o),
(1898,648,o),
(1926,731,c),
(2058,832,o),
(2280,879,o),
(2563,816,cs),
(2590,810,o),
(2631,930,o),
(2639,967,c),
(2449,1006,o),
(2192,1107,o),
(2192,1263,cs),
(2192,1389,o),
(2530,1454,o),
(2658,1454,cs),
(2724,1454,o),
(2770,1428,o),
(2770,1371,cs),
(2770,1317,o),
(2748,1273,o),
(2726,1247,c),
(2743,1228,o),
(2792,1190,o),
(2827,1190,cs),
(2904,1190,o),
(2964,1294,o),
(2964,1383,cs),
(2964,1503,o),
(2853,1564,o),
(2711,1564,cs),
(2553,1564,o),
(2357,1526,o),
(2210,1461,c),
(2206,1519,o),
(2161,1560,o),
(2076,1560,cs),
(1784,1560,o),
(1335,1335,o),
(975,1037,c),
(894,1054,o),
(806,1065,o),
(717,1065,cs),
(362,1065,o),
(32,947,o),
(32,739,cs),
(32,570,o),
(285,516,o),
(325,587,c)
);
},
{
closed = 1;
nodes = (
(2101,1041,o),
(2138,1012,o),
(2179,988,c),
(2127,986,o),
(2075,980,o),
(2024,970,c),
(2072,1073,l)
);
}
);
width = 2601;
}
);
unicode = 198;
}
{
glyphname = Ccedilla;
kernLeft = KO_C;
kernRight = KO_C;
layers = (
{
layerId = m001;
shapes = (
{
closed = 1;
nodes = (
(1483,1182,o),
(1575,1259,o),
(1575,1370,cs),
(1575,1513,o),
(1432,1572,o),
(1285,1572,cs),
(761,1572,o),
(105,1054,o),
(105,530,cs),
(105,160,o),
(352,-22,o),
(647,-50,c),
(573,-82,o),
(504,-130,o),
(504,-173,cs),
(504,-201,o),
(557,-236,o),
(557,-298,cs),
(557,-359,o),
(452,-362,o),
(392,-320,c),
(368,-328,o),
(320,-391,o),
(327,-416,cs),
(348,-493,o),
(441,-549,o),
(526,-549,cs),
(641,-549,o),
(796,-489,o),
(796,-356,cs),
(796,-233,o),
(674,-185,o),
(674,-158,cs),
(674,-132,o),
(780,-73,o),
(860,-44,c),
(1157,-3,o),
(1456,174,o),
(1575,460,cs),
(1599,518,o),
(1575,539,o),
(1540,536,c),
(1253,93,o),
(485,182,o),
(485,682,cs),
(485,1048,o),
(881,1462,o),
(1247,1462,cs),
(1344,1462,o),
(1378,1374,o),
(1286,1264,c),
(1303,1245,o),
(1396,1182,o),
(1431,1182,cs)
);
}
);
width = 1361;
}
);
unicode = 199;
}
{
glyphname = Ntilde;
kernLeft = KO_N;
kernRight = KO_N;
layers = (
{
layerId = m001;
shapes = (
{
closed = 1;
nodes = (
(916,1662,o),
(1004,1735,o),
(1084,1735,cs),
(1193,1735,o),
(1253,1647,o),
(1399,1647,cs),
(1522,1647,o),
(1619,1735,o),
(1630,1799,cs),
(1634,1821,o),
(1590,1846,o),
(1590,1846,c),
(1590,1846,o),
(1511,1774,o),
(1439,1774,cs),
(1337,1774,o),
(1270,1852,o),
(1125,1852,cs),
(1022,1852,o),
(906,1791,o),
(872,1710,cs),
(864,1690,o),
(916,1662,o),
(916,1662,c)
);
},
{
closed = 1;
nodes = (
(1645,293,o),
(1623,287,o),
(1601,287,cs),
(1530,287,o),
(1475,327,o),
(1475,415,cs),
(1475,727,o),
(1703,946,o),
(1703,1256,cs),
(1703,1444,o),
(1592,1537,o),
(1423,1537,cs),
(1125,1537,o),
(883,1287,o),
(601,930,c),
(775,1331,o),
(691,1613,o),
(506,1613,cs),
(460,1613,o),
(436,1591,o),
(434,1546,c),
(502,1543,o),
(519,1471,o),
(519,1354,cs),
(519,1082,o),
(107,543,o),
(107,189,cs),
(107,45,o),
(186,-27,o),
(243,-27,cs),
(309,-27,o),
(488,62,o),
(525,104,c),
(485,573,o),
(985,1413,o),
(1396,1413,cs),
(1483,1413,o),
(1548,1368,o),
(1548,1272,cs),
(1548,1051,o),
(988,730,o),
(988,366,cs),
(988,84,o),
(1165,-33,o),
(1359,-33,cs),
(1551,-33,o),
(1710,138,o),
(1710,239,c),
(1710,258,o),
(1676,296,o),
(1667,302,c)
);
}
);
width = 1766;
}
);
unicode = 209;
}
{
glyphname = multiply;
kernLeft = KO_multiply;
kernRight = KO_multiply;
layers = (
{
layerId = m001;
shapes = (
{
closed = 1;
nodes = (
(183,270,o),
(245,217,o),
(299,237,cs),
(349,256,o),
(515,345,o),
(687,446,c),
(770,334,o),
(859,238,o),
(898,218,cs),
(931,200,o),
(976,227,o),
(1016,274,c),
(959,327,o),
(892,426,o),
(831,533,c),
(963,615,o),
(1081,695,o),
(1130,745,cs),
(1198,815,o),
(1166,876,o),
(1090,936,c),
(1023,857,o),
(900,759,o),
(762,661,c),
(703,777,o),
(658,884,o),
(645,936,c),
(552,905,o),
(508,872,o),
(508,802,cs),
(508,743,o),
(551,652,o),
(610,558,c),
(453,455,o),
(294,358,o),
(184,293,c)
);
}
);
width = 1436;
}
);
unicode = 215;
userData = {
KernOnSpecialSpacing = {
L = math;
R = math;
};
};
}
{
glyphname = Oslash;
kernLeft = KO_O;
kernRight = KO_Oslash;
layers = (
{
layerId = m001;
shapes = (
{
closed = 1;
nodes = (
(117,-192,o),
(221,-246,o),
(262,-246,cs),
(288,-246,o),
(360,-165,o),
(456,-37,c),
(505,-48,o),
(558,-54,o),
(613,-54,cs),
(1368,-54,o),
(1612,666,o),
(1612,1085,cs),
(1612,1269,o),
(1547,1411,o),
(1439,1494,c),
(1475,1563,o),
(1497,1611,o),
(1497,1627,cs),
(1497,1645,o),
(1444,1663,o),
(1420,1670,c),
(1407,1647,o),
(1381,1604,o),
(1344,1547,c),
(1297,1565,o),
(1245,1574,o),
(1189,1574,cs),
(684,1574,o),
(53,1018,o),
(53,486,cs),
(53,284,o),
(137,132,o),
(272,41,c),
(196,-52,o),
(134,-123,o),
(93,-159,c)
);
},
{
closed = 1;
nodes = (
(471,1093,o),
(821,1464,o),
(1185,1464,cs),
(1218,1464,o),
(1249,1458,o),
(1278,1446,c),
(1104,1184,o),
(808,756,o),
(549,405,c),
(498,465,o),
(471,551,o),
(471,655,cs)
);
},
{
closed = 1;
nodes = (
(763,303,o),
(732,306,o),
(704,313,c),
(943,665,o),
(1216,1100,o),
(1372,1373,c),
(1409,1322,o),
(1431,1249,o),
(1431,1154,cs),
(1431,767,o),
(1164,303,o),
(796,303,cs)
);
}
);
width = 1568;
}
);
unicode = 216;
}
{
glyphname = Thorn;
kernLeft = KO_Thorn;
kernRight = KO_Thorn;
layers = (
{
layerId = m001;
shapes = (
{
closed = 1;
nodes = (
(673,1303,o),
(91,299,o),
(91,60,cs),
(91,-22,o),
(310,-60,o),
(447,-60,c),
(453,-20,o),
(496,130,o),
(557,327,c),
(560,321,o),
(564,316,o),
(569,312,cs),
(643,253,o),
(789,217,o),
(967,217,cs),
(1351,217,o),
(1737,504,o),
(1737,882,cs),
(1737,1199,o),
(1329,1320,o),
(895,1324,c),
(935,1431,o),
(973,1526,o),
(1005,1596,c),
(980,1627,o),
(901,1645,o),
(876,1608,cs)
);
},
{
closed = 1;
nodes = (
(1125,1202,o),
(1497,1143,o),
(1497,964,cs),
(1497,756,o),
(1235,619,o),
(996,619,cs),
(885,619,o),
(751,650,o),
(671,682,c),
(729,858,o),
(791,1041,o),
(850,1205,c)
);
}
);
width = 1706;
}
);
unicode = 222;
}
{
glyphname = germandbls;
kernRight = KO_germandbls;
layers = (
{
layerId = m001;
shapes = (
{
closed = 1;
nodes = (
(510,333,o),
(455,235,o),
(455,182,cs),
(455,75,o),
(575,0,o),
(708,0,cs),
(937,0,o),
(1121,142,o),
(1121,339,cs),
(1121,550,o),
(877,618,o),
(877,728,cs),
(877,851,o),
(1178,890,o),
(1178,1123,cs),
(1178,1265,o),
(1071,1378,o),
(929,1378,cs),
(548,1378,o),
(8,340,o),
(8,-19,cs),
(8,-163,o),
(105,-216,o),
(256,-210,c),
(329,85,o),
(622,1263,o),
(913,1263,cs),
(983,1263,o),
(1028,1208,o),
(1028,1138,cs),
(1028,964,o),
(644,923,o),
(644,672,cs),
(644,559,o),
(736,446,o),
(736,385,cs),
(736,359,o),
(728,340,o),
(694,340,cs),
(657,340,o),
(576,365,o),
(545,385,c)
);
}
);
width = 1162;
}
);
unicode = 223;
}
{
glyphname = ae;
kernLeft = KO_a;
kernRight = KO_z;
layers = (
{
layerId = m001;
shapes = (
{
closed = 1;
nodes = (
(1666,393,o),
(1497,276,o),
(1315,276,cs),
(1213,276,o),
(1104,314,o),
(1063,393,c),
(1299,421,o),
(1617,517,o),
(1617,739,cs),
(1617,839,o),
(1531,891,o),
(1431,891,cs),
(1329,891,o),
(1210,861,o),
(1096,810,c),
(1108,841,o),
(1117,864,o),
(1121,876,c),
(1121,876,o),
(1008,910,o),
(968,856,cs),
(959,844,l),
(937,860,o),
(899,869,o),
(845,869,cs),
(420,869,o),
(38,579,o),
(38,270,cs),
(38,110,o),
(144,0,o),
(312,0,cs),
(469,0,o),
(637,112,o),
(702,187,c),
(761,38,o),
(917,-29,o),
(1114,-29,cs),
(1448,-29,o),
(1697,224,o),
(1795,460,cs),
(1819,518,o),
(1795,539,o),
(1760,536,c)
);
},
{
closed = 1;
nodes = (
(394,317,o),
(360,358,o),
(360,433,cs),
(360,614,o),
(569,776,o),
(912,777,c),
(795,606,o),
(616,317,o),
(457,317,cs)
);
},
{
closed = 1;
nodes = (
(1365,778,o),
(1381,736,o),
(1381,696,cs),
(1381,586,o),
(1213,505,o),
(1047,486,c),
(1057,630,o),
(1174,778,o),
(1310,778,cs)
);
}
);
width = 1577;
}
);
unicode = 230;
}
{
glyphname = ccedilla;
kernLeft = KO_eacute;
kernRight = KO_c;
layers = (
{
layerId = m001;
shapes = (
{
closed = 1;
nodes = (
(930,378,o),
(790,290,o),
(623,290,cs),
(510,290,o),
(420,353,o),
(420,468,cs),
(420,610,o),
(538,766,o),
(680,766,cs),
(743,766,o),
(795,739,o),
(820,726,c),
(845,735,o),
(859,757,o),
(859,781,cs),
(859,831,o),
(776,885,o),
(681,885,cs),
(414,885,o),
(50,608,o),
(50,333,cs),
(50,135,o),
(158,19,o),
(335,-8,c),
(285,-43,o),
(242,-82,o),
(242,-115,cs),
(242,-143,o),
(295,-178,o),
(295,-240,cs),
(295,-301,o),
(190,-304,o),
(130,-262,c),
(106,-270,o),
(58,-333,o),
(65,-358,cs),
(86,-435,o),
(179,-491,o),
(264,-491,cs),
(379,-491,o),
(534,-431,o),
(534,-298,cs),
(534,-175,o),
(412,-127,o),
(412,-100,cs),
(412,-83,o),
(464,-42,o),
(516,-7,c),
(771,33,o),
(976,236,o),
(1069,460,cs),
(1093,518,o),
(1069,539,o),
(1034,536,c)
);
}
);
width = 851;
}
);
unicode = 231;
}
{
glyphname = eth;
kernLeft = KO_d;
kernRight = KO_eth;
layers = (
{
layerId = m001;
shapes = (
{
closed = 1;
nodes = (
(510,1072,o),
(539,1003,o),
(594,1003,cs),
(629,1003,o),
(716,1029,o),
(807,1062,c),
(823,1007,o),
(834,948,o),
(838,887,c),
(428,886,o),
(38,548,o),
(38,271,cs),
(38,112,o),
(144,2,o),
(391,2,cs),
(701,2,o),
(1074,328,o),
(1074,771,cs),
(1074,893,o),
(1032,1020,o),
(969,1128,c),
(1013,1148,o),
(1049,1166,o),
(1068,1180,cs),
(1107,1207,o),
(1108,1251,o),
(1089,1279,c),
(1069,1265,o),
(998,1239,o),
(913,1213,c),
(865,1277,o),
(811,1330,o),
(757,1366,cs),
(731,1383,o),
(685,1378,o),
(655,1345,c),
(700,1297,o),
(738,1238,o),
(768,1172,c),
(662,1143,o),
(560,1118,o),
(515,1112,c)
);
},
{
closed = 1;
nodes = (
(394,319,o),
(360,359,o),
(360,435,cs),
(360,586,o),
(560,772,o),
(840,803,c),
(834,583,o),
(654,319,o),
(458,319,cs)
);
}
);
width = 1044;
}
);
unicode = 240;
}
{
glyphname = divide;
layers = (
{
layerId = m001;
shapes = (
{
closed = 1;
nodes = (
(968,633,o),
(446,632,o),
(316,669,c),
(281,545,o),
(310,463,o),
(484,463,cs),
(708,463,o),
(1021,482,o),
(1139,533,cs),
(1180,551,o),
(1202,614,o),
(1189,667,c)
);
},
{
closed = 1;
nodes = (
(661,810,o),
(724,767,o),
(788,767,cs),
(864,767,o),
(966,855,o),
(966,921,cs),
(966,980,o),
(878,1031,o),
(839,1031,cs),
(782,1031,o),
(661,946,o),
(661,874,cs)
);
},
{
closed = 1;
nodes = (
(458,105,o),
(521,62,o),
(585,62,cs),
(661,62,o),
(763,150,o),
(763,216,cs),
(763,275,o),
(675,326,o),
(636,326,cs),
(579,326,o),
(458,241,o),
(458,169,cs)
);
}
);
width = 1436;
}
);
unicode = 247;
userData = {
KernOnSpecialSpacing = {
L = math;
R = math;
};
};
}
{
glyphname = oslash;
kernLeft = KO_oacute;
kernRight = KO_o;
layers = (
{
layerId = m001;
shapes = (
{
closed = 1;
nodes = (
(1160,440,o),
(1059,336,o),
(922,306,c),
(973,397,o),
(1001,500,o),
(1001,608,cs),
(1001,696,o),
(959,773,o),
(890,827,c),
(943,905,o),
(998,979,o),
(998,1001,cs),
(998,1019,o),
(934,1063,o),
(910,1070,c),
(882,1030,o),
(799,947,o),
(761,891,c),
(698,908,o),
(628,911,o),
(554,897,cs),
(521,890,o),
(494,850,o),
(498,812,c),
(249,733,o),
(38,504,o),
(38,270,cs),
(38,196,o),
(59,131,o),
(104,83,c),
(47,26,o),
(-11,-37,o),
(-47,-72,c),
(-22,-116,o),
(79,-195,o),
(123,-195,cs),
(159,-195,o),
(236,-71,o),
(285,-1,c),
(318,-6,o),
(350,-6,o),
(382,-6,cs),
(879,-6,o),
(1152,208,o),
(1258,460,cs),
(1282,518,o),
(1258,539,o),
(1223,536,c)
);
},
{
closed = 1;
nodes = (
(841,688,o),
(625,317,o),
(457,317,cs),
(394,317,o),
(360,358,o),
(360,433,cs),
(360,588,o),
(442,723,o),
(605,768,c)
);
}
);
width = 1040;
}
);
unicode = 248;
}
{
glyphname = thorn;
kernLeft = KO_p;
kernRight = KO_s;
layers = (
{
layerId = m001;
shapes = (
{
closed = 1;
nodes = (
(1247,407,o),
(1126,321,o),
(1004,302,c),
(1064,390,o),
(1100,490,o),
(1100,593,cs),
(1100,779,o),
(1008,887,o),
(822,887,cs),
(736,887,o),
(649,857,o),
(571,810,c),
(673,1027,o),
(813,1248,o),
(874,1342,c),
(841,1393,o),
(756,1394,o),
(717,1349,cs),
(469,1060,o),
(-178,122,o),
(-178,-277,cs),
(-178,-463,o),
(-66,-538,o),
(45,-538,cs),
(77,-538,o),
(112,-526,o),
(112,-498,cs),
(114,-375,o),
(174,-170,o),
(252,45,c),
(305,11,o),
(373,-7,o),
(450,-7,cs),
(458,-7,ls),
(910,-7,o),
(1236,147,o),
(1366,460,cs),
(1390,518,o),
(1366,539,o),
(1331,536,c)
);
},
{
closed = 1;
nodes = (
(870,771,o),
(912,727,o),
(912,665,cs),
(912,507,o),
(707,321,o),
(549,321,cs),
(491,321,o),
(453,366,o),
(453,424,cs),
(453,474,o),
(465,534,o),
(486,599,c),
(572,700,o),
(708,771,o),
(804,771,cs)
);
}
);
width = 1136;
}
);
unicode = 254;
}
{
glyphname = hbar;
kernRight = KO_a;
layers = (
{
layerId = m001;
shapes = (
{
closed = 1;
nodes = (
(1333,423,o),
(1205,317,o),
(1100,317,cs),
(1045,317,o),
(1033,367,o),
(1033,422,cs),
(1033,565,o),
(1272,833,o),
(1100,833,cs),
(901,833,o),
(630,702,o),
(471,558,c),
(513,675,o),
(562,786,o),
(613,883,c),
(775,898,o),
(915,921,o),
(967,945,cs),
(1009,965,o),
(1014,1031,o),
(1000,1052,c),
(918,1039,o),
(809,1033,o),
(698,1032,c),
(780,1165,o),
(854,1249,o),
(888,1249,cs),
(915,1249,o),
(959,1203,o),
(972,1170,c),
(1159,1236,o),
(1048,1396,o),
(950,1396,cs),
(844,1396,o),
(646,1243,o),
(463,1037,c),
(360,1043,o),
(273,1052,o),
(226,1064,c),
(150,952,o),
(145,867,o),
(279,867,cs),
(324,867,l),
(169,658,o),
(50,426,o),
(50,249,cs),
(50,69,o),
(108,0,o),
(288,0,cs),
(320,0,o),
(355,12,o),
(355,40,c),
(360,141,o),
(379,245,o),
(405,349,c),
(508,493,o),
(791,655,o),
(891,655,cs),
(916,655,o),
(669,428,o),
(669,225,cs),
(669,75,o),
(731,-9,o),
(881,-9,cs),
(1150,-9,o),
(1380,310,o),
(1442,460,cs),
(1466,518,o),
(1442,539,o),
(1407,536,c)
);
}
);
width = 1224;
}
);
unicode = 295;
}
{
glyphname = dotlessi;
kernLeft = KO_i;
kernRight = KO_a;
layers = (
{
layerId = m001;
shapes = (
{
closed = 1;
nodes = (
(779,423,o),
(651,317,o),
(546,317,cs),
(468,317,o),
(421,369,o),
(421,437,cs),
(421,534,o),
(488,683,o),
(625,829,c),
(605,855,o),
(548,880,o),
(534,880,cs),
(424,880,o),
(49,481,o),
(49,229,cs),
(49,48,o),
(168,-6,o),
(280,-6,cs),
(599,-6,o),
(826,310,o),
(888,460,cs),
(912,518,o),
(888,539,o),
(853,536,c)
);
}
);
width = 670;
}
);
unicode = 305;
}
{
glyphname = ij;
kernLeft = KO_i;
kernRight = KO_j;
layers = (
{
layerId = m001;
shapes = (
{
closed = 1;
nodes = (
(365,-429,o),
(440,-500,o),
(544,-500,cs),
(727,-500,o),
(761,-316,o),
(847,9,c),
(1074,48,o),
(1301,207,o),
(1405,460,cs),
(1429,518,o),
(1405,539,o),
(1370,536,c),
(1282,402,o),
(1074,284,o),
(918,258,c),
(973,436,o),
(1048,642,o),
(1164,872,c),
(1088,911,o),
(1038,891,o),
(1005,832,cs),
(958,748,o),
(899,634,o),
(835,510,c),
(760,407,o),
(643,317,o),
(546,317,cs),
(468,317,o),
(421,369,o),
(421,437,cs),
(421,534,o),
(488,683,o),
(625,829,c),
(605,855,o),
(548,880,o),
(534,880,cs),
(424,880,o),
(49,481,o),
(49,229,cs),
(49,48,o),
(168,-6,o),
(280,-6,cs),
(423,-6,o),
(548,57,o),
(647,141,c),
(517,-110,o),
(397,-332,o),
(343,-375,c)
);
},
{
closed = 1;
nodes = (
(508,1108,o),
(584,1062,o),
(664,1062,cs),
(770,1062,o),
(917,1112,o),
(917,1218,cs),
(917,1306,o),
(852,1366,o),
(746,1366,cs),
(597,1366,o),
(508,1266,o),
(508,1188,cs)
);
},
{
closed = 1;
nodes = (
(1055,1137,o),
(1131,1091,o),
(1211,1091,cs),
(1320,1091,o),
(1417,1174,o),
(1417,1253,cs),
(1417,1333,o),
(1348,1378,o),
(1265,1378,cs),
(1134,1378,o),
(1055,1296,o),
(1055,1217,cs)
);
}
);
width = 1187;
}
);
unicode = 307;
}
{
glyphname = kgreenlandic;
kernLeft = KO_n;
kernRight = KO_a;
layers = (
{
layerId = m001;
shapes = (
{
closed = 1;
nodes = (
(1133,423,o),
(1005,317,o),
(900,317,cs),
(828,317,o),
(791,375,o),
(762,460,c),
(944,558,o),
(1067,718,o),
(1067,821,cs),
(1067,856,o),
(1040,889,o),
(997,886,cs),
(979,885,o),
(902,878,o),
(892,867,c),
(892,643,o),
(608,522,o),
(470,436,c),
(474,272,o),
(475,-9,o),
(681,-9,cs),
(950,-9,o),
(1180,310,o),
(1242,460,cs),
(1266,518,o),
(1242,539,o),
(1207,536,c)
);
},
{
closed = 1;
nodes = (
(384,360,o),
(488,638,o),
(596,864,c),
(576,893,o),
(511,898,o),
(471,879,cs),
(293,791,o),
(50,501,o),
(50,259,cs),
(50,73,o),
(201,10,o),
(312,10,cs),
(344,10,o),
(379,22,o),
(379,50,cs)
);
}
);
width = 1024;
}
);
unicode = 312;
}
{
glyphname = ldot;
kernLeft = KO_ldot;
layers = (
{
layerId = m001;
shapes = (
{
closed = 1;
nodes = (
(987,374,o),
(835,297,o),
(710,297,cs),
(540,297,o),
(427,357,o),
(423,558,c),
(654,736,o),
(1001,1083,o),
(1001,1299,cs),
(1001,1368,o),
(972,1441,o),
(907,1441,cs),
(661,1441,o),
(50,767,o),
(50,411,cs),
(50,156,o),
(185,-20,o),
(485,-20,cs),
(814,-20,o),
(1041,250,o),
(1128,460,cs),
(1152,518,o),
(1128,539,o),
(1093,536,c)
);
},
{
closed = 1;
nodes = (
(840,1251,o),
(843,1217,o),
(843,1205,cs),
(843,1105,o),
(643,872,o),
(444,717,c),
(506,957,o),
(688,1251,o),
(818,1251,cs)
);
},
{
closed = 1;
nodes = (
(633,521,o),
(693,480,o),
(754,480,cs),
(826,480,o),
(924,573,o),
(924,637,cs),
(924,693,o),
(839,742,o),
(803,742,cs),
(748,742,o),
(633,650,o),
(633,582,cs)
);
}
);
width = 910;
}
);
unicode = 320;
userData = {
KernOnSpecialSpacing = {
R = NoKerning;
};
};
}
{
glyphname = Lslash;
kernLeft = KO_Lslash;
kernRight = KO_Lslash;
layers = (
{
layerId = m001;
shapes = (
{
closed = 1;
nodes = (
(1472,982,o),
(1592,1155,o),
(1592,1319,cs),
(1592,1463,o),
(1524,1577,o),
(1356,1577,cs),
(1006,1577,o),
(823,1173,o),
(633,810,c),
(352,787,o),
(111,754,o),
(111,601,cs),
(111,480,o),
(231,454,o),
(279,495,c),
(275,520,o),
(271,535,o),
(271,568,cs),
(271,643,o),
(378,654,o),
(553,663,c),
(470,518,o),
(382,392,o),
(275,318,c),
(246,322,o),
(216,324,o),
(185,324,cs),
(77,324,o),
(-35,240,o),
(-35,143,cs),
(-35,67,o),
(36,-7,o),
(105,-6,cs),
(169,-6,o),
(210,7,o),
(258,19,c),
(538,-4,o),
(705,-227,o),
(1060,-227,cs),
(1264,-227,o),
(1452,-16,o),
(1452,188,cs),
(1452,225,o),
(1421,239,o),
(1382,241,c),
(1344,161,o),
(1247,123,o),
(1152,123,cs),
(1001,123,o),
(673,195,o),
(551,235,c),
(681,251,o),
(765,443,o),
(844,670,c),
(972,672,o),
(1094,675,o),
(1174,692,cs),
(1265,711,o),
(1219,840,o),
(1218,875,c),
(1164,848,o),
(1042,838,o),
(897,828,c),
(1002,1141,o),
(1115,1460,o),
(1334,1460,cs),
(1468,1460,o),
(1461,1220,o),
(1259,1079,c),
(1259,1079,o),
(1309,982,o),
(1378,982,cs)
);
}
);
width = 1514;
}
);
unicode = 321;
}
{
glyphname = lslash;
kernRight = KO_e;
layers = (
{
layerId = m001;
shapes = (
{
closed = 1;
nodes = (
(827,374,o),
(675,317,o),
(550,317,cs),
(466,317,o),
(423,384,o),
(423,530,cs),
(423,761,o),
(550,998,o),
(684,1178,c),
(945,1211,o),
(1213,1237,o),
(1213,1310,cs),
(1213,1333,o),
(1208,1354,o),
(1200,1375,c),
(1131,1351,o),
(973,1337,o),
(802,1321,c),
(837,1360,o),
(870,1393,o),
(898,1419,c),
(849,1478,o),
(781,1478,o),
(714,1414,cs),
(680,1381,o),
(642,1343,o),
(601,1301,c),
(379,1275,o),
(183,1237,o),
(183,1157,cs),
(183,1135,o),
(198,1100,o),
(218,1071,c),
(260,1104,o),
(350,1128,o),
(461,1147,c),
(256,910,o),
(50,607,o),
(50,350,cs),
(50,145,o),
(163,0,o),
(325,0,cs),
(654,0,o),
(881,250,o),
(968,460,cs),
(992,518,o),
(968,539,o),
(933,536,c)
);
}
);
width = 750;
}
);
unicode = 322;
}
{
glyphname = OE;
kernLeft = KO_OE;
kernRight = KO_OE;
layers = (
{
layerId = m001;
shapes = (
{
closed = 1;
nodes = (
(1823,894,o),
(1641,1027,o),
(1641,1160,cs),
(1641,1286,o),
(1953,1445,o),
(2081,1445,cs),
(2147,1445,o),
(2193,1419,o),
(2193,1362,cs),
(2193,1308,o),
(2171,1264,o),
(2149,1238,c),
(2166,1219,o),
(2215,1181,o),
(2250,1181,cs),
(2327,1181,o),
(2387,1285,o),
(2387,1374,cs),
(2387,1494,o),
(2276,1555,o),
(2134,1555,cs),
(1956,1555,o),
(1740,1457,o),
(1596,1329,c),
(1530,1470,o),
(1387,1558,o),
(1208,1558,cs),
(648,1558,o),
(54,1082,o),
(54,522,cs),
(54,182,o),
(292,-18,o),
(614,-18,cs),
(773,-18,o),
(930,43,o),
(1067,143,c),
(1157,40,o),
(1305,-27,o),
(1503,-27,cs),
(1803,-27,o),
(2087,255,o),
(2087,372,cs),
(2087,394,o),
(2038,435,o),
(2038,435,c),
(1969,385,o),
(1838,299,o),
(1660,299,cs),
(1456,299,o),
(1342,424,o),
(1342,546,cs),
(1342,667,o),
(1407,818,o),
(1522,889,c),
(1622,787,o),
(1791,722,o),
(1887,722,cs),
(1923,722,o),
(1973,771,o),
(1996,845,c)
);
},
{
closed = 1;
nodes = (
(589,339,o),
(472,475,o),
(472,691,cs),
(472,1141,o),
(754,1448,o),
(1204,1448,cs),
(1344,1448,o),
(1445,1351,o),
(1445,1211,cs),
(1445,1122,o),
(1424,1059,o),
(1406,998,c),
(1235,949,o),
(964,782,o),
(964,420,cs),
(964,405,o),
(965,390,o),
(966,375,c),
(911,352,o),
(854,339,o),
(797,339,cs)
);
}
);
width = 2140;
}
);
unicode = 338;
}
{
glyphname = oe;
kernLeft = KO_o;
kernRight = KO_z;
layers = (
{
layerId = m001;
shapes = (
{
closed = 1;
nodes = (
(518,892,o),
(509,849,o),
(511,816,c),
(256,741,o),
(38,508,o),
(38,270,cs),
(38,110,o),
(138,-6,o),
(357,-6,cs),
(497,-6,o),
(620,32,o),
(720,95,c),
(798,10,o),
(924,-29,o),
(1075,-29,cs),
(1409,-29,o),
(1658,224,o),
(1756,460,cs),
(1780,518,o),
(1756,539,o),
(1721,536,c),
(1627,393,o),
(1458,276,o),
(1276,276,cs),
(1174,276,o),
(1065,314,o),
(1024,393,c),
(1260,421,o),
(1578,517,o),
(1578,739,cs),
(1578,839,o),
(1492,891,o),
(1392,891,cs),
(1258,891,o),
(1093,839,o),
(952,756,c),
(879,857,o),
(730,918,o),
(554,897,c)
);
},
{
closed = 1;
nodes = (
(394,317,o),
(360,358,o),
(360,433,cs),
(360,597,o),
(452,739,o),
(636,775,c),
(828,673,o),
(618,317,o),
(457,317,cs)
);
},
{
closed = 1;
nodes = (
(1326,778,o),
(1342,736,o),
(1342,696,cs),
(1342,586,o),
(1174,505,o),
(1008,486,c),
(1018,630,o),
(1135,778,o),
(1271,778,cs)
);
}
);
width = 1538;
}
);
unicode = 339;
}
{
glyphname = dotlessj;
layers = (
{
layerId = m001;
shapes = (
{
closed = 1;
nodes = (
(-303,-429,o),
(-228,-500,o),
(-124,-500,cs),
(59,-500,o),
(93,-316,o),
(179,9,c),
(406,48,o),
(633,207,o),
(737,460,cs),
(761,518,o),
(737,539,o),
(702,536,c),
(614,402,o),
(406,284,o),
(250,258,c),
(305,436,o),
(380,642,o),
(496,872,c),
(420,911,o),
(370,891,o),
(337,832,cs),
(151,500,o),
(-218,-290,o),
(-325,-375,c)
);
}
);
width = 489;
}
);
unicode = 567;
}
{
glyphname = circumflex;
layers = (
{
layerId = m001;
shapes = (
{
closed = 1;
nodes = (
(1082,1146,o),
(976,1355,o),
(943,1450,c),
(929,1462,o),
(889,1465,o),
(870,1468,c),
(837,1373,o),
(522,1146,o),
(458,1102,c),
(467,1081,o),
(521,1040,o),
(538,1040,cs),
(589,1040,o),
(755,1126,o),
(863,1215,c),
(921,1124,o),
(1010,1041,o),
(1081,1041,cs),
(1098,1041,o),
(1137,1081,o),
(1146,1102,c)
);
}
);
width = 1200;
}
);
unicode = 710;
}
{
glyphname = caron;
layers = (
{
layerId = m001;
shapes = (
{
closed = 1;
nodes = (
(522,1362,o),
(628,1153,o),
(661,1058,c),
(675,1046,o),
(715,1043,o),
(734,1040,c),
(767,1135,o),
(1082,1362,o),
(1146,1406,c),
(1137,1427,o),
(1083,1468,o),
(1066,1468,cs),
(1015,1468,o),
(849,1382,o),
(741,1293,c),
(683,1384,o),
(594,1467,o),
(523,1467,cs),
(506,1467,o),
(467,1427,o),
(458,1406,c)
);
}
);
width = 0;
}
);
unicode = 711;
}
{
glyphname = ring;
layers = (
{
layerId = m001;
shapes = (
{
closed = 1;
nodes = (
(819,1322,o),
(846,1296,o),
(846,1264,cs),
(846,1210,o),
(781,1146,o),
(719,1146,cs),
(675,1146,o),
(650,1168,o),
(650,1201,cs),
(650,1263,o),
(714,1322,o),
(784,1322,cs)
);
},
{
closed = 1;
nodes = (
(635,1418,o),
(481,1266,o),
(481,1134,cs),
(481,1032,o),
(560,977,o),
(648,977,cs),
(802,977,o),
(955,1122,o),
(955,1275,cs),
(955,1354,o),
(905,1418,o),
(802,1418,cs)
);
}
);
width = 1200;
}
);
unicode = 730;
}
{
glyphname = tilde;
layers = (
{
layerId = m001;
shapes = (
{
closed = 1;
nodes = (
(398,1115,o),
(499,1210,o),
(579,1210,cs),
(676,1210,o),
(714,1063,o),
(860,1063,cs),
(983,1063,o),
(1106,1200,o),
(1106,1285,cs),
(1106,1307,o),
(1025,1344,o),
(1025,1344,c),
(1025,1344,o),
(986,1287,o),
(928,1287,cs),
(826,1287,o),
(762,1380,o),
(617,1380,cs),
(498,1380,o),
(389,1283,o),
(342,1179,cs),
(333,1159,o),
(398,1115,o),
(398,1115,c)
);
}
);
width = 1200;
}
);
unicode = 732;
}
{
glyphname = endash;
kernLeft = KO_endash;
kernRight = KO_endash;
layers = (
{
layerId = m001;
shapes = (
{
closed = 1;
nodes = (
(1177,593,o),
(608,603,o),
(480,635,c),
(442,527,o),
(459,433,o),
(633,433,cs),
(857,433,o),
(1279,477,o),
(1365,517,cs),
(1407,537,o),
(1412,606,o),
(1398,627,c)
);
}
);
width = 1518;
}
);
unicode = 8211;
userData = {
KernOnSpecialSpacing = {
L = dashes;
R = dashes;
};
};
}
{
glyphname = emdash;
kernLeft = KO_emdash;
kernRight = KO_emdash;
layers = (
{
layerId = m001;
shapes = (
{
closed = 1;
nodes = (
(1511,608,o),
(518,580,o),
(340,625,c),
(322,505,o),
(319,433,o),
(493,433,cs),
(1041,433,o),
(1544,483,o),
(1666,527,cs),
(1710,543,o),
(1713,616,o),
(1699,637,c)
);
}
);
width = 1661;
}
);
unicode = 8212;
userData = {
KernOnSpecialSpacing = {
L = dashes;
R = dashes;
};
};
}
{
glyphname = quoteleft;
kernLeft = KO_quoteleft;
kernRight = KO_quoteleft;
layers = (
{
layerId = m001;
shapes = (
{
closed = 1;
nodes = (
(889,1450,o),
(850,1472,o),
(837,1472,cs),
(734,1472,o),
(475,1271,o),
(475,1094,cs),
(475,1022,o),
(530,975,o),
(603,975,cs),
(694,975,o),
(758,1042,o),
(758,1119,cs),
(758,1149,o),
(745,1182,o),
(724,1203,c),
(736,1261,o),
(845,1384,o),
(894,1433,c)
);
}
);
width = 781;
}
);
unicode = 8216;
userData = {
KernOnSpecialSpacing = {
L = quotes;
R = quotes;
};
};
}
{
glyphname = quoteright;
kernLeft = KO_quoteright;
kernRight = KO_quoteright;
layers = (
{
layerId = m001;
shapes = (
{
closed = 1;
nodes = (
(440,997,o),
(479,975,o),
(492,975,cs),
(595,975,o),
(854,1176,o),
(854,1353,cs),
(854,1425,o),
(799,1472,o),
(726,1472,cs),
(635,1472,o),
(571,1405,o),
(571,1328,cs),
(571,1298,o),
(584,1265,o),
(605,1244,c),
(593,1186,o),
(484,1063,o),
(435,1014,c)
);
}
);
width = 781;
}
);
unicode = 8217;
userData = {
KernOnSpecialSpacing = {
L = quotes;
R = quotes;
};
};
}
{
glyphname = quotesinglbase;
kernRight = KO_quotesinglbase;
layers = (
{
layerId = m001;
shapes = (
{
closed = 1;
nodes = (
(198,-170,o),
(237,-192,o),
(250,-192,cs),
(353,-192,o),
(612,9,o),
(612,186,cs),
(612,258,o),
(557,305,o),
(484,305,cs),
(393,305,o),
(329,238,o),
(329,161,cs),
(329,131,o),
(342,98,o),
(363,77,c),
(351,19,o),
(242,-101,o),
(193,-153,c)
);
}
);
width = 781;
}
);
unicode = 8218;
userData = {
KernOnSpecialSpacing = {
L = quotes;
R = quotes;
};
};
}
{
glyphname = quotedblleft;
kernLeft = KO_quotedblleft;
kernRight = KO_quotedblleft;
layers = (
{
layerId = m001;
shapes = (
{
closed = 1;
nodes = (
(889,1450,o),
(850,1472,o),
(837,1472,cs),
(734,1472,o),
(475,1271,o),
(475,1094,cs),
(475,1022,o),
(530,975,o),
(603,975,cs),
(694,975,o),
(758,1042,o),
(758,1119,cs),
(758,1149,o),
(745,1182,o),
(724,1203,c),
(736,1261,o),
(845,1384,o),
(894,1433,c)
);
},
{
closed = 1;
nodes = (
(1289,1450,o),
(1250,1472,o),
(1237,1472,cs),
(1134,1472,o),
(875,1271,o),
(875,1094,cs),
(875,1022,o),
(930,975,o),
(1003,975,cs),
(1094,975,o),
(1158,1042,o),
(1158,1119,cs),
(1158,1149,o),
(1145,1182,o),
(1124,1203,c),
(1136,1261,o),
(1245,1384,o),
(1294,1433,c)
);
}
);
width = 1181;
}
);
unicode = 8220;
userData = {
KernOnSpecialSpacing = {
L = quotes;
R = quotes;
};
};
}
{
glyphname = quotedblright;
kernLeft = KO_quotedblright;
kernRight = KO_quotedblright;
layers = (
{
layerId = m001;
shapes = (
{
closed = 1;
nodes = (
(440,997,o),
(479,975,o),
(492,975,cs),
(595,975,o),
(854,1176,o),
(854,1353,cs),
(854,1425,o),
(799,1472,o),
(726,1472,cs),
(635,1472,o),
(571,1405,o),
(571,1328,cs),
(571,1298,o),
(584,1265,o),
(605,1244,c),
(593,1186,o),
(484,1063,o),
(435,1014,c)
);
},
{
closed = 1;
nodes = (
(840,997,o),
(879,975,o),
(892,975,cs),
(995,975,o),
(1254,1176,o),
(1254,1353,cs),
(1254,1425,o),
(1199,1472,o),
(1126,1472,cs),
(1035,1472,o),
(971,1405,o),
(971,1328,cs),
(971,1298,o),
(984,1265,o),
(1005,1244,c),
(993,1186,o),
(884,1063,o),
(835,1014,c)
);
}
);
width = 1181;
}
);
unicode = 8221;
userData = {
KernOnSpecialSpacing = {
L = quotes;
R = quotes;
};
};
}
{
glyphname = quotedblbase;
kernRight = KO_quotedblbase;
layers = (
{
layerId = m001;
shapes = (
{
closed = 1;
nodes = (
(145,-170,o),
(184,-192,o),
(197,-192,cs),
(300,-192,o),
(559,9,o),
(559,186,cs),
(559,258,o),
(504,305,o),
(431,305,cs),
(340,305,o),
(276,238,o),
(276,161,cs),
(276,131,o),
(289,98,o),
(310,77,c),
(298,19,o),
(189,-101,o),
(140,-153,c)
);
},
{
closed = 1;
nodes = (
(545,-170,o),
(584,-192,o),
(597,-192,cs),
(700,-192,o),
(959,9,o),
(959,186,cs),
(959,258,o),
(904,305,o),
(831,305,cs),
(740,305,o),
(676,238,o),
(676,161,cs),
(676,131,o),
(689,98,o),
(710,77,c),
(698,19,o),
(589,-101,o),
(540,-153,c)
);
}
);
width = 1181;
}
);
unicode = 8222;
userData = {
KernOnSpecialSpacing = {
L = quotes;
R = quotes;
};
};
}
{
glyphname = bullet;
layers = (
{
layerId = m001;
shapes = (
{
closed = 1;
nodes = (
(341,411,o),
(447,335,o),
(527,335,cs),
(670,335,o),
(859,452,o),
(859,561,cs),
(859,659,o),
(772,739,o),
(655,739,cs),
(488,739,o),
(341,611,o),
(341,491,cs)
);
}
);
width = 979;
}
);
unicode = 8226;
userData = {
KernOnSpecialSpacing = {
L = NoKerning;
R = NoKerning;
};
};
}
{
glyphname = ellipsis;
kernLeft = KO_ellipsis;
kernRight = KO_ellipsis;
layers = (
{
layerId = m001;
shapes = (
{
closed = 1;
nodes = (
(180,-41,o),
(256,-87,o),
(336,-87,cs),
(447,-87,o),
(648,3,o),
(648,109,cs),
(648,197,o),
(583,257,o),
(477,257,cs),
(316,257,o),
(180,146,o),
(180,39,cs)
);
},
{
closed = 1;
nodes = (
(1008,-41,o),
(1084,-87,o),
(1164,-87,cs),
(1275,-87,o),
(1476,3,o),
(1476,109,cs),
(1476,197,o),
(1411,257,o),
(1305,257,cs),
(1144,257,o),
(1008,146,o),
(1008,39,cs)
);
},
{
closed = 1;
nodes = (
(1836,-41,o),
(1912,-87,o),
(1992,-87,cs),
(2103,-87,o),
(2304,3,o),
(2304,109,cs),
(2304,197,o),
(2239,257,o),
(2133,257,cs),
(1972,257,o),
(1836,146,o),
(1836,39,cs)
);
}
);
width = 2484;
}
);
unicode = 8230;
}
{
glyphname = guilsinglleft;
kernLeft = KO_guilsinglleft;
kernRight = KO_guilsinglleft;
layers = (
{
layerId = m001;
shapes = (
{
closed = 1;
nodes = (
(942,323,o),
(724,422,o),
(724,528,cs),
(724,587,o),
(983,733,o),
(1045,753,c),
(1027,805,o),
(994,851,o),
(950,851,cs),
(826,851,o),
(406,574,o),
(406,437,cs),
(406,277,o),
(641,98,o),
(802,98,cs),
(841,98,o),
(936,283,o),
(942,323,c)
);
}
);
width = 1085;
}
);
unicode = 8249;
userData = {
KernOnSpecialSpacing = {
L = quotes;
R = quotes;
};
};
}
{
glyphname = guilsinglright;
kernLeft = KO_guilsinglright;
kernRight = KO_guilsinglright;
layers = (
{
layerId = m001;
shapes = (
{
closed = 1;
nodes = (
(339,239,o),
(416,96,o),
(458,96,cs),
(596,96,o),
(946,297,o),
(946,478,cs),
(946,619,o),
(672,851,o),
(575,851,cs),
(552,851,o),
(498,793,o),
(492,750,c),
(492,750,o),
(676,622,o),
(676,549,cs),
(676,455,o),
(377,327,o),
(315,307,c)
);
}
);
width = 1085;
}
);
unicode = 8250;
userData = {
KernOnSpecialSpacing = {
L = quotes;
R = quotes;
};
};
}
{
glyphname = fraction;
layers = (
{
layerId = m001;
shapes = (
{
closed = 1;
nodes = (
(-125,-255,o),
(-45,-335,o),
(-4,-335,cs),
(215,-335,o),
(1718,1417,o),
(1718,1625,cs),
(1718,1643,o),
(1674,1673,o),
(1650,1680,c),
(1259,1106,o),
(140,-11,o),
(-140,-210,c)
);
}
);
width = 1311;
}
);
unicode = 8260;
userData = {
KernOnSpecialSpacing = {
L = fraction;
R = fraction;
};
};
}
{
glyphname = Euro;
kernLeft = KO_Euro;
layers = (
{
layerId = m001;
shapes = (
{
closed = 1;
nodes = (
(912,698,o),
(741,689,o),
(576,688,c),
(584,718,o),
(596,748,o),
(608,779,c),
(786,789,o),
(966,811,o),
(1050,847,cs),
(1091,865,o),
(1113,902,o),
(1100,955,c),
(1001,940,o),
(843,931,o),
(686,929,c),
(801,1114,o),
(978,1267,o),
(1164,1267,cs),
(1281,1267,o),
(1348,1171,o),
(1385,1074,c),
(1385,1074,o),
(1493,1101,o),
(1493,1199,cs),
(1493,1278,o),
(1372,1378,o),
(1186,1378,cs),
(924,1378,o),
(653,1173,o),
(467,932,c),
(360,936,o),
(271,944,o),
(227,957,c),
(194,842,o),
(217,782,o),
(359,774,c),
(344,747,o),
(329,721,o),
(316,694,c),
(239,699,o),
(177,706,o),
(143,716,c),
(112,608,o),
(130,540,o),
(249,524,c),
(235,475,o),
(228,428,o),
(228,387,cs),
(228,139,o),
(360,-6,o),
(628,-6,cs),
(837,-6,o),
(1039,133,o),
(1125,298,cs),
(1159,363,o),
(1119,417,o),
(1097,437,c),
(1017,369,o),
(891,317,o),
(767,317,cs),
(619,317,o),
(550,390,o),
(550,523,cs),
(550,526,l),
(703,535,o),
(854,554,o),
(966,594,cs),
(1008,609,o),
(1029,661,o),
(1016,714,c)
);
}
);
width = 1327;
}
);
unicode = 8364;
userData = {
KernOnSpecialSpacing = {
L = symbols;
R = symbols;
};
};
}
{
glyphname = trademark;
kernLeft = KO_trademark;
layers = (
{
layerId = m001;
shapes = (
{
closed = 1;
nodes = (
(603,1478,l),
(799,1478,l),
(799,1588,l),
(290,1588,l),
(290,1478,l),
(486,1478,l),
(486,1017,l),
(603,1017,l)
);
},
{
closed = 1;
nodes = (
(1431,1587,l),
(1376,1587,l),
(1157,1336,l),
(937,1587,l),
(884,1587,l),
(839,1017,l),
(953,1017,l),
(981,1372,l),
(1139,1194,l),
(1168,1194,l),
(1334,1377,l),
(1364,1017,l),
(1479,1017,l)
);
}
);
width = 1619;
}
);
unicode = 8482;
userData = {
KernOnSpecialSpacing = {
L = superiors;
};
};
}
{
glyphname = minus;
kernLeft = KO_minus;
kernRight = KO_minus;
layers = (
{
layerId = m001;
shapes = (
{
closed = 1;
nodes = (
(1028,633,o),
(506,632,o),
(376,669,c),
(341,545,o),
(370,463,o),
(544,463,cs),
(768,463,o),
(1081,482,o),
(1199,533,cs),
(1240,551,o),
(1262,614,o),
(1249,667,c)
);
}
);
width = 1436;
}
);
unicode = 8722;
userData = {
KernOnSpecialSpacing = {
L = math;
R = math;
};
};
}
{
glyphname = commaaccent;
layers = (
{
layerId = m001;
shapes = (
{
closed = 1;
nodes = (
(64,-478,o),
(103,-500,o),
(116,-500,cs),
(224,-500,o),
(408,-308,o),
(408,-199,cs),
(408,-131,o),
(331,-101,o),
(219,-110,c),
(212,-180,o),
(100,-415,o),
(59,-461,c)
);
}
);
width = 781;
}
);
unicode = 63171;
}
{
glyphname = acute.cap;
layers = (
{
layerId = m001;
shapes = (
{
closed = 1;
nodes = (
(815,1659,o),
(832,1634,o),
(858,1634,cs),
(969,1634,o),
(1303,1683,o),
(1303,1749,cs),
(1303,1779,o),
(1277,1838,o),
(1253,1852,c),
(1166,1801,o),
(889,1711,o),
(811,1705,c)
);
}
);
width = 1600;
}
);
}
{
glyphname = caron.cap;
layers = (
{
layerId = m001;
shapes = (
{
closed = 1;
nodes = (
(830,1746,o),
(970,1675,o),
(1023,1633,c),
(1037,1621,o),
(1041,1621,o),
(1060,1618,c),
(1144,1653,o),
(1369,1738,o),
(1471,1788,c),
(1462,1809,o),
(1420,1852,o),
(1389,1852,cs),
(1362,1852,o),
(1182,1768,o),
(1084,1722,c),
(1014,1771,o),
(892,1852,o),
(853,1852,cs),
(824,1852,o),
(775,1805,o),
(765,1783,c)
);
}
);
width = 1600;
}
);
}
{
glyphname = circumflex.cap;
layers = (
{
layerId = m001;
shapes = (
{
closed = 1;
nodes = (
(1422,1683,o),
(1275,1788,o),
(1236,1833,c),
(1222,1845,o),
(1182,1848,o),
(1163,1851,c),
(1071,1791,o),
(849,1706,o),
(747,1656,c),
(756,1635,o),
(774,1602,o),
(795,1602,cs),
(846,1602,o),
(1044,1658,o),
(1137,1710,c),
(1204,1667,o),
(1377,1598,o),
(1416,1598,cs),
(1445,1598,o),
(1477,1624,o),
(1487,1646,c)
);
}
);
width = 1600;
}
);
}
{
glyphname = dieresis.cap;
layers = (
{
layerId = m001;
shapes = (
{
closed = 1;
nodes = (
(1260,1681,o),
(1316,1634,o),
(1372,1634,cs),
(1440,1634,o),
(1527,1704,o),
(1527,1738,cs),
(1527,1773,o),
(1470,1822,o),
(1423,1822,cs),
(1384,1822,o),
(1260,1770,o),
(1260,1729,cs)
);
},
{
closed = 1;
nodes = (
(837,1674,o),
(901,1634,o),
(937,1634,cs),
(993,1634,o),
(1099,1697,o),
(1099,1740,cs),
(1099,1779,o),
(1020,1822,o),
(983,1822,cs),
(955,1822,o),
(837,1763,o),
(837,1706,cs)
);
}
);
width = 1600;
}
);
}
{
glyphname = grave.cap;
layers = (
{
layerId = m001;
shapes = (
{
closed = 1;
nodes = (
(1205,1711,o),
(948,1801,o),
(861,1852,c),
(837,1838,o),
(811,1779,o),
(811,1749,cs),
(811,1683,o),
(1125,1634,o),
(1236,1634,cs),
(1262,1634,o),
(1279,1659,o),
(1283,1705,c)
);
}
);
width = 1600;
}
);
}
{
glyphname = ring.cap;
layers = (
{
layerId = m001;
shapes = (
{
closed = 1;
nodes = (
(1306,1792,o),
(1334,1777,o),
(1334,1753,cs),
(1334,1719,o),
(1262,1683,o),
(1206,1683,cs),
(1161,1683,o),
(1135,1698,o),
(1135,1719,cs),
(1135,1755,o),
(1212,1792,o),
(1271,1792,cs)
);
},
{
closed = 1;
nodes = (
(1117,1852,o),
(982,1771,o),
(982,1696,cs),
(982,1631,o),
(1062,1595,o),
(1151,1595,cs),
(1308,1595,o),
(1439,1660,o),
(1439,1758,cs),
(1439,1810,o),
(1377,1852,o),
(1283,1852,cs)
);
}
);
width = 1600;
}
);
}
{
glyphname = tilde.cap;
layers = (
{
layerId = m001;
shapes = (
{
closed = 1;
nodes = (
(688,1662,o),
(776,1735,o),
(856,1735,cs),
(965,1735,o),
(1025,1634,o),
(1171,1634,cs),
(1294,1634,o),
(1391,1722,o),
(1402,1786,cs),
(1406,1808,o),
(1362,1833,o),
(1362,1833,c),
(1362,1833,o),
(1283,1761,o),
(1211,1761,cs),
(1109,1761,o),
(1042,1852,o),
(897,1852,cs),
(794,1852,o),
(678,1791,o),
(644,1710,cs),
(636,1690,o),
(688,1662,o),
(688,1662,c)
);
}
);
width = 1600;
}
);
}
